/* XPM */
static char * 7k_xpm[] = {
"32 32 13 1",
" 	c None",
".	c #008000",
"+	c #0000FF",
"@	c #000080",
"#	c #FFFF00",
"$	c #000000",
"%	c #808000",
"&	c #C0C0C0",
"*	c #FF00FF",
"=	c #FF0000",
"-	c #FFFFFF",
";	c #800000",
">	c #808080",
"      .+++++++++++++++++@       ",
"       .+#############$@        ",
"++     .+##%%%%%%%%&#&$@        ",
"+++     .+#%*****==-#$@      +++",
"+#@+    .+##%*-==;-#&$@     +@#@",
"+##@+++++++#%*===;-#$@++++++@#%@",
"+###@@@@@@@##%*=;-#&$@@@@@@@##%@",
"+##########&#%*=;-#%##########%@",
"+##########%##%=-#&%##########%@",
"+%%%%%%%%%%%&##-##%%%%%%%%%%%%%@",
"+$$$$$$$$$$$$####&%$$$$$$$$$$$$@",
"+############&###%#####$@@#####@",
"+############%##&%###%%$@+@###%@",
"+#%%%%%%%###&%>#>###%%$@@+@##%%@",
"+%%$$$$$%%##%$@>@##%%$@@+@##%%$@",
"+$$@@@@@$##&%$@@@##%%$@+@##%%$@ ",
"+$@    +@##%$@ +@##%%$@@##%%$@  ",
"+@     +&#&%$@ +@##%%$@##%%$@   ",
"      +@##%$@  +@##%%$##%%$@    ",
"      +&#&%$@  +@###%##%%$@     ",
"     +@##%%$@  +@######%$@      ",
"     +@#&%$@   +@######%$@      ",
"     +&#%%$@   +@####%##$@      ",
"    +@##%%$@   +@###%%%##$@     ",
"    +&#&%$@    +@##%%$%%##$@    ",
"   +@##%%$@    +@##%%$@%%##$@   ",
"   +@#&%$@     +@##%%$@@%%##$@  ",
"   +&#%%$@     +@##%%$@+@%%##$@ ",
"  +@##%%$@     +@##%%$@ +@%%##$@",
"  +&###%%$@   +@@###%%$@ +@%%##@",
" +@#####%%$@ +@@#####%%$@ +@%%#@",
"+@@@@@@@@@@@ +@@@@@@@@@@@  @@@@@"};
