<?xml version="1.0" encoding="utf-8"?>
<!-- Generator: Adobe Illustrator 19.2.1, SVG Export Plug-In . SVG Version: 6.00 Build 0)  -->
<svg version="1.1" id="Layer_1" xmlns="http://www.w3.org/2000/svg" xmlns:xlink="http://www.w3.org/1999/xlink" x="0px" y="0px"
	 viewBox="0 0 133.2 144.10001" style="enable-background:new 0 0 133.2 144.10001;" xml:space="preserve">
<style type="text/css">
	.st0{fill:#5E3F29;}
	.st1{fill:#74A057;}
	.st2{fill:#658B4E;}
	.st3{fill:#6B9452;}
	.st4{fill:#63874C;}
	.st5{fill:#62854B;}
	.st6{fill:#5E7F47;}
	.st7{fill:#87C063;}
	.st8{fill:#6B9150;}
	.st9{fill:#84B860;}
	.st10{fill:#6E9753;}
	.st11{fill:#6F9A54;}
	.st12{fill:#78A559;}
	.st13{fill:#587642;}
	.st14{fill:#668B4D;}
	.st15{fill:#709954;}
	.st16{fill:#65894C;}
	.st17{fill:#75A258;}
	.st18{fill:#698E4F;}
	.st19{fill:#75A057;}
	.st20{fill:#7AA95B;}
	.st21{fill:#6F9954;}
	.st22{fill:#618349;}
	.st23{fill:#6C9552;}
	.st24{fill:#6E9653;}
	.st25{fill:#7BAA5B;}
	.st26{fill:#81B45E;}
	.st27{fill:#5E8048;}
	.st28{fill:#678D4E;}
	.st29{fill:#77A257;}
	.st30{fill:#77A559;}
	.st31{fill:#7DAF5D;}
	.st32{fill:#79A75A;}
	.st33{fill:#668C4E;}
	.st34{fill:#749D56;}
	.st35{fill:#8BC865;}
	.st36{fill:#76A358;}
	.st37{fill:#8AC565;}
	.st38{fill:#61844A;}
	.st39{fill:#608249;}
	.st40{fill:#5B7A45;}
	.st41{fill:#5C7B45;}
	.st42{fill:#83B75F;}
	.st43{fill:#64884C;}
	.st44{fill:#5E7E47;}
	.st45{fill:#77A659;}
	.st46{fill:#5F8048;}
	.st47{fill:#6C9452;}
	.st48{fill:#536C3C;}
	.st49{fill:#719B55;}
	.st50{fill:#678E4F;}
	.st51{fill:#83B960;}
	.st52{fill:#5E7F48;}
	.st53{fill:#688F4F;}
	.st54{fill:#6D9552;}
	.st55{fill:#64874B;}
	.st56{fill:#77A358;}
	.st57{fill:#7DAE5C;}
	.st58{fill:#64894C;}
	.st59{fill:#89C063;}
	.st60{fill:#82B760;}
	.st61{fill:#78A659;}
	.st62{fill:#739E56;}
	.st63{fill:#62844A;}
	.st64{fill:#6A9050;}
	.st65{fill:#699050;}
	.st66{fill:#6D9451;}
	.st67{fill:#63854A;}
	.st68{fill:#7BAB5B;}
	.st69{fill:#80B45F;}
	.st70{fill:#7CAD5C;}
	.st71{fill:#76A258;}
	.st72{fill:#6A9251;}
	.st73{fill:#608048;}
	.st74{fill:#698F4F;}
	.st75{fill:#78A85A;}
	.st76{fill:#7BAC5C;}
	.st77{fill:#81B65F;}
	.st78{fill:#668A4D;}
	.st79{fill:#5D7B45;}
	.st80{fill:#5D7D46;}
	.st81{fill:#719C55;}
	.st82{fill:#618249;}
	.st83{fill:#85BB61;}
	.st84{fill:#7CAE5C;}
	.st85{fill:#63874B;}
	.st86{fill:#6A9150;}
	.st87{fill:#6A8F4F;}
	.st88{fill:#628349;}
	.st89{fill:#658B4D;}
	.st90{fill:#7AA85A;}
	.st91{fill:#76A157;}
	.st92{fill:#7EB25E;}
	.st93{fill:#83B860;}
	.st94{fill:#729C55;}
	.st95{fill:#587441;}
	.st96{fill:#688E4F;}
	.st97{fill:#6F9753;}
	.st98{fill:#3B6E37;}
	.st99{fill:#3C7038;}
	.st100{fill:#396D37;}
	.st101{fill:#316333;}
	.st102{fill:#376A35;}
	.st103{fill:#2D5E31;}
	.st104{fill:#346835;}
	.st105{fill:#41773A;}
	.st106{fill:#336634;}
	.st107{fill:#326333;}
	.st108{fill:#336534;}
	.st109{fill:#2E5F31;}
	.st110{fill:#21532B;}
	.st111{fill:#366935;}
	.st112{fill:#3B6F37;}
	.st113{fill:#4B7237;}
	.st114{fill:#446A34;}
	.st115{fill:#466B34;}
	.st116{fill:#422919;}
	.st117{fill:#316433;}
	.st118{fill:#2E6031;}
	.st119{fill:#527A39;}
	.st120{fill:#4F7738;}
	.st121{fill:#346734;}
	.st122{fill:#4C7438;}
	.st123{fill:#59823E;}
	.st124{fill:#2F6232;}
	.st125{fill:#376A36;}
	.st126{fill:#42773A;}
	.st127{fill:#517939;}
	.st128{fill:#547D3C;}
	.st129{fill:#26582E;}
	.st130{fill:#545555;}
	.st131{fill:#386B36;}
	.st132{fill:#795438;}
	.st133{fill:#986947;}
	.st134{fill:#6C6C6B;}
	.st135{fill:#024D2C;}
	.st136{fill:#044F2D;}
	.st137{fill:#004C2C;}
	.st138{fill:#004428;}
	.st139{fill:#004A2A;}
	.st140{fill:#004025;}
	.st141{fill:#00482A;}
	.st142{fill:#0C542F;}
	.st143{fill:#004729;}
	.st144{fill:#004629;}
	.st145{fill:#004126;}
	.st146{fill:#00361F;}
	.st147{fill:#00492A;}
	.st148{fill:#024E2D;}
	.st149{fill:#20502C;}
	.st150{fill:#194A29;}
	.st151{fill:#1C4B2A;}
	.st152{fill:#230800;}
	.st153{fill:#004528;}
	.st154{fill:#27572F;}
	.st155{fill:#24552E;}
	.st156{fill:#21522D;}
	.st157{fill:#2E5E32;}
	.st158{fill:#004327;}
	.st159{fill:#004A2B;}
	.st160{fill:#0F5530;}
	.st161{fill:#26562F;}
	.st162{fill:#2A5A30;}
	.st163{fill:#003B22;}
	.st164{fill:#313636;}
	.st165{fill:#004B2B;}
	.st166{fill:#3D2112;}
	.st167{fill:#53331F;}
	.st168{fill:#6E462B;}
	.st169{fill:#484A49;}
</style>
<g>
	<path class="st0" d="M132.89999,30.99994l-66.49999-31l-66.5,31h-0.1v5.1v5.1v5.1v5.1v5.1v5.1v10.40001v20.5v10.3v10.2l4.2,1.9
		l4.2,1.9l4.2,1.9l8.3,3.9l4.2,1.9l4.2,1.9l12.5,5.8l8.3,3.89999l8.3,3.89999l4.2,1.89999l4,1.89999v0.10001h0.1h0.1v0.10001
		l4-1.89999l4.2-1.89999l4.2-1.89999l8.3-3.89999l4.2-1.89999l4.2-1.89999l12.5-5.8l8.3-3.9l8.3-3.9l4.2-1.9l4.2-1.9v-5.1
		l-4.2,1.89997l-4.2,1.9l8.3-3.9v-10.4v-5.1v-5.1v-5.1v-5.1v-5.2v-10.3v-5.1v-10.3v-5.1v-5.1L132.89999,30.99994L132.89999,30.99994
		z M45.7,83.09994l4.2,1.9l-8.3-3.9L45.7,83.09994z M33.2,107.99994l4.2,1.9l8.3,3.9l-16.7-7.7L33.2,107.99994z M24.8,73.39994
		l1.7,0.8l-5.9-2.7L24.8,73.39994z M12.3,108.59994l-4.2-1.9l8.3,3.9L12.3,108.59994z M16.5,74.59994l4.2,1.9l4.2,1.9L16.5,74.59994
		z M20.7,86.79994l4.2,1.9l4.2,1.9L20.7,86.79994z M24.8,114.39994l8.3,3.9l-4.2-1.9L24.8,114.39994z M29,121.49994l4.2,1.9l8.3,3.9
		L29,121.49994z M45.7,118.99994l-4.2-1.9l-4.2-1.9l12.5,5.8L45.7,118.99994z M49.8,115.79994l4.2,1.9l4.2,1.9L49.8,115.79994z
		 M62.3,136.99994l-4.2-1.89999l8.2,3.8L62.3,136.99994z M112.2,71.39994l4.2-1.9l-8.3,3.9L112.2,71.39994z M103.8,106.09994
		l8.3-3.9l-16.60001,7.8l4.2-1.9L103.8,106.09994z M99.7,66.99994l-8.3,3.9l-4.2,1.9L99.7,66.99994z M78.8,102.39994l-4.2,1.9
		l-4.2,1.9L78.8,102.39994z M70.5,121.59994l8.3-3.9l-4.2,1.9L70.5,121.59994z M78.8,127.99994l-4.2,1.89999L83,125.99994
		L78.8,127.99994z M83,90.19994l4.2-1.9l4.2-1.9L83,90.19994z M87.2,103.59994l8.3-3.9l-4.2,1.9L87.2,103.59994z M91.3,122.19994
		l8.3-3.9l-4.2,1.9L91.3,122.19994z M95.5,125.29994l4.2-1.9l8.3-3.9L95.5,125.29994z M103.8,116.29994l4.2-1.9l4.2-1.9
		L103.8,116.29994z M112.2,107.29994l-4.2,1.9l-4.2,1.9l12.5-5.8L112.2,107.29994z M116.3,100.19994l4.2-1.9l4.2-1.9
		L116.3,100.19994z M120.5,62.39994l4.2-1.9l4.2-1.9L120.5,62.39994z M120.5,52.19994l4.2-1.9l4.2-1.9L120.5,52.19994z"/>
	<g>
		<g>
			<polyline class="st1" points="66.4,62.09994 62.3,60.09994 66.4,58.19994 70.6,60.09994 			"/>
			<polyline class="st2" points="62.3,60.09994 58.1,58.19994 62.3,56.19994 66.4,58.19994 			"/>
			<polyline class="st3" points="58.1,58.19994 53.9,56.19994 58.1,54.29994 62.3,56.19994 			"/>
			<polyline class="st4" points="53.9,56.19994 49.8,54.29994 53.9,52.39994 58.1,54.29994 			"/>
			<polyline class="st5" points="49.8,54.29994 45.6,52.39994 49.8,50.39994 53.9,52.39994 			"/>
			<polyline class="st6" points="45.6,52.39994 41.5,50.39994 45.6,48.49994 49.8,50.39994 			"/>
			<polyline class="st7" points="41.5,50.39994 37.3,48.49994 41.5,46.49994 45.6,48.49994 			"/>
			<polyline class="st8" points="37.3,48.49994 33.1,46.49994 37.3,44.59994 41.5,46.49994 			"/>
			<polyline class="st9" points="33.1,46.49994 29,44.59994 33.1,42.69994 37.3,44.59994 			"/>
			<polyline class="st10" points="29,44.59994 24.8,42.69994 29,40.69994 33.1,42.69994 			"/>
			<polyline class="st11" points="24.8,42.69994 20.6,40.69994 24.8,38.79994 29,40.69994 			"/>
			<polyline class="st12" points="20.6,40.69994 16.5,38.79994 20.6,36.79994 24.8,38.79994 			"/>
			<polyline class="st13" points="16.5,38.79994 12.3,36.79994 16.5,34.89994 20.6,36.79994 			"/>
			<polyline class="st14" points="12.3,36.79994 8.2,34.89994 12.3,32.99994 16.5,34.89994 			"/>
			<polyline class="st15" points="8.2,34.89994 4,32.99994 8.2,30.99994 12.3,32.99994 			"/>
			<polyline class="st16" points="4,32.99994 -0.2,30.99994 4,29.09994 8.2,30.99994 			"/>
			<polyline class="st17" points="70.6,60.09994 66.4,58.19994 70.6,56.19994 74.7,58.19994 			"/>
			<polyline class="st18" points="66.4,58.19994 62.3,56.19994 66.4,54.29994 70.6,56.19994 			"/>
			<polyline class="st19" points="62.3,56.19994 58.1,54.29994 62.3,52.39994 66.4,54.29994 			"/>
			<polyline class="st20" points="58.1,54.29994 53.9,52.39994 58.1,50.39994 62.3,52.39994 			"/>
			<polyline class="st14" points="53.9,52.39994 49.8,50.39994 53.9,48.49994 58.1,50.39994 			"/>
			<polyline class="st10" points="49.8,50.39994 45.6,48.49994 49.8,46.49994 53.9,48.49994 			"/>
			<polyline class="st21" points="45.6,48.49994 41.5,46.49994 45.6,44.59994 49.8,46.49994 			"/>
			<polyline class="st22" points="41.5,46.49994 37.3,44.59994 41.5,42.69994 45.6,44.59994 			"/>
			<polyline class="st23" points="37.3,44.59994 33.1,42.69994 37.3,40.69994 41.5,42.69994 			"/>
			<polyline class="st24" points="33.1,42.69994 29,40.69994 33.1,38.79994 37.3,40.69994 			"/>
			<polyline class="st25" points="29,40.69994 24.8,38.79994 29,36.79994 33.1,38.79994 			"/>
			<polyline class="st26" points="24.8,38.79994 20.6,36.79994 24.8,34.89994 29,36.79994 			"/>
			<polyline class="st27" points="20.6,36.79994 16.5,34.89994 20.6,32.99994 24.8,34.89994 			"/>
			<polyline class="st28" points="16.5,34.89994 12.3,32.99994 16.5,30.99994 20.6,32.99994 			"/>
			<polyline class="st29" points="12.3,32.99994 8.2,30.99994 12.3,29.09994 16.5,30.99994 			"/>
			<polyline class="st30" points="8.2,30.99994 4,29.09994 8.2,27.09994 12.3,29.09994 			"/>
			<polyline class="st31" points="74.7,58.19994 70.6,56.19994 74.7,54.29994 78.9,56.19994 			"/>
			<polyline class="st32" points="70.6,56.19994 66.4,54.29994 70.6,52.39994 74.7,54.29994 			"/>
			<polyline class="st33" points="66.4,54.29994 62.3,52.39994 66.4,50.39994 70.6,52.39994 			"/>
			<polyline class="st17" points="62.3,52.39994 58.1,50.39994 62.3,48.49994 66.4,50.39994 			"/>
			<polyline class="st34" points="58.1,50.39994 53.9,48.49994 58.1,46.49994 62.3,48.49994 			"/>
			<polyline class="st32" points="53.9,48.49994 49.8,46.49994 53.9,44.59994 58.1,46.49994 			"/>
			<polyline class="st35" points="49.8,46.49994 45.6,44.59994 49.8,42.69994 53.9,44.59994 			"/>
			<polyline class="st36" points="45.6,44.59994 41.5,42.69994 45.6,40.69994 49.8,42.69994 			"/>
			<polyline class="st37" points="41.5,42.69994 37.3,40.69994 41.5,38.79994 45.6,40.69994 			"/>
			<polyline class="st38" points="37.3,40.69994 33.1,38.79994 37.3,36.79994 41.5,38.79994 			"/>
			<polyline class="st22" points="33.1,38.79994 29,36.79994 33.1,34.89994 37.3,36.79994 			"/>
			<polyline class="st39" points="29,36.79994 24.8,34.89994 29,32.99994 33.1,34.89994 			"/>
			<polyline class="st40" points="24.8,34.89994 20.6,32.99994 24.8,30.99994 29,32.99994 			"/>
			<polyline class="st41" points="20.6,32.99994 16.5,30.99994 20.6,29.09994 24.8,30.99994 			"/>
			<polyline class="st20" points="16.5,30.99994 12.3,29.09994 16.5,27.09994 20.6,29.09994 			"/>
			<polyline class="st42" points="12.3,29.09994 8.2,27.09994 12.3,25.19994 16.5,27.09994 			"/>
			<polyline class="st43" points="78.9,56.19994 74.7,54.29994 78.9,52.39994 83.1,54.29994 			"/>
			<polyline class="st44" points="74.7,54.29994 70.6,52.39994 74.7,50.39994 78.9,52.39994 			"/>
			<polyline class="st45" points="70.6,52.39994 66.4,50.39994 70.6,48.49994 74.7,50.39994 			"/>
			<polyline class="st19" points="66.4,50.39994 62.3,48.49994 66.4,46.49994 70.6,48.49994 			"/>
			<polyline class="st46" points="62.3,48.49994 58.1,46.49994 62.3,44.59994 66.4,46.49994 			"/>
			<polyline class="st28" points="58.1,46.49994 53.9,44.59994 58.1,42.69994 62.3,44.59994 			"/>
			<polyline class="st47" points="53.9,44.59994 49.8,42.69994 53.9,40.69994 58.1,42.69994 			"/>
			<polyline class="st48" points="49.8,42.69994 45.6,40.69994 49.8,38.79994 53.9,40.69994 			"/>
			<polyline class="st6" points="45.6,40.69994 41.5,38.79994 45.6,36.79994 49.8,38.79994 			"/>
			<polyline class="st16" points="41.5,38.79994 37.3,36.79994 41.5,34.89994 45.6,36.79994 			"/>
			<polyline class="st3" points="37.3,36.79994 33.1,34.89994 37.3,32.99994 41.5,34.89994 			"/>
			<polyline class="st49" points="33.1,34.89994 29,32.99994 33.1,30.99994 37.3,32.99994 			"/>
			<polyline class="st50" points="29,32.99994 24.8,30.99994 29,29.09994 33.1,30.99994 			"/>
			<polyline class="st5" points="24.8,30.99994 20.6,29.09994 24.8,27.09994 29,29.09994 			"/>
			<polyline class="st11" points="20.6,29.09994 16.5,27.09994 20.6,25.19994 24.8,27.09994 			"/>
			<polyline class="st51" points="16.5,27.09994 12.3,25.19994 16.5,23.29994 20.6,25.19994 			"/>
			<polyline class="st50" points="83.1,54.29994 78.9,52.39994 83.1,50.39994 87.2,52.39994 			"/>
			<polyline class="st39" points="78.9,52.39994 74.7,50.39994 78.9,48.49994 83.1,50.39994 			"/>
			<polyline class="st22" points="74.7,50.39994 70.6,48.49994 74.7,46.49994 78.9,48.49994 			"/>
			<polyline class="st38" points="70.6,48.49994 66.4,46.49994 70.6,44.59994 74.7,46.49994 			"/>
			<polyline class="st52" points="66.4,46.49994 62.3,44.59994 66.4,42.69994 70.6,44.59994 			"/>
			<polyline class="st53" points="62.3,44.59994 58.1,42.69994 62.3,40.69994 66.4,42.69994 			"/>
			<polyline class="st54" points="58.1,42.69994 53.9,40.69994 58.1,38.79994 62.3,40.69994 			"/>
			<polyline class="st11" points="53.9,40.69994 49.8,38.79994 53.9,36.79994 58.1,38.79994 			"/>
			<polyline class="st14" points="49.8,38.79994 45.6,36.79994 49.8,34.89994 53.9,36.79994 			"/>
			<polyline class="st23" points="45.6,36.79994 41.5,34.89994 45.6,32.99994 49.8,34.89994 			"/>
			<polyline class="st55" points="41.5,34.89994 37.3,32.99994 41.5,30.99994 45.6,32.99994 			"/>
			<polyline class="st11" points="37.3,32.99994 33.1,30.99994 37.3,29.09994 41.5,30.99994 			"/>
			<polyline class="st56" points="33.1,30.99994 29,29.09994 33.1,27.09994 37.3,29.09994 			"/>
			<polyline class="st16" points="29,29.09994 24.8,27.09994 29,25.19994 33.1,27.09994 			"/>
			<polyline class="st57" points="24.8,27.09994 20.6,25.19994 24.8,23.29994 29,25.19994 			"/>
			<polyline class="st43" points="20.6,25.19994 16.5,23.29994 20.6,21.29994 24.8,23.29994 			"/>
			<polyline class="st8" points="87.2,52.39994 83.1,50.39994 87.2,48.49994 91.4,50.39994 			"/>
			<polyline class="st58" points="83.1,50.39994 78.9,48.49994 83.1,46.49994 87.2,48.49994 			"/>
			<polyline class="st33" points="78.9,48.49994 74.7,46.49994 78.9,44.59994 83.1,46.49994 			"/>
			<polyline class="st8" points="74.7,46.49994 70.6,44.59994 74.7,42.69994 78.9,44.59994 			"/>
			<polyline class="st4" points="70.6,44.59994 66.4,42.69994 70.6,40.69994 74.7,42.69994 			"/>
			<polyline class="st32" points="66.4,42.69994 62.3,40.69994 66.4,38.79994 70.6,40.69994 			"/>
			<polyline class="st44" points="62.3,40.69994 58.1,38.79994 62.3,36.79994 66.4,38.79994 			"/>
			<polyline class="st59" points="58.1,38.79994 53.9,36.79994 58.1,34.89994 62.3,36.79994 			"/>
			<polyline class="st23" points="53.9,36.79994 49.8,34.89994 53.9,32.99994 58.1,34.89994 			"/>
			<polyline class="st8" points="49.8,34.89994 45.6,32.99994 49.8,30.99994 53.9,32.99994 			"/>
			<polyline class="st60" points="45.6,32.99994 41.5,30.99994 45.6,29.09994 49.8,30.99994 			"/>
			<polyline class="st55" points="41.5,30.99994 37.3,29.09994 41.5,27.09994 45.6,29.09994 			"/>
			<polyline class="st61" points="37.3,29.09994 33.1,27.09994 37.3,25.19994 41.5,27.09994 			"/>
			<polyline class="st11" points="33.1,27.09994 29,25.19994 33.1,23.29994 37.3,25.19994 			"/>
			<polyline class="st62" points="29,25.19994 24.8,23.29994 29,21.29994 33.1,23.29994 			"/>
			<polyline class="st34" points="24.8,23.29994 20.6,21.29994 24.8,19.39994 29,21.29994 			"/>
			<polyline class="st63" points="91.4,50.39994 87.2,48.49994 91.4,46.49994 95.6,48.49994 			"/>
			<polyline class="st8" points="87.2,48.49994 83.1,46.49994 87.2,44.59994 91.4,46.49994 			"/>
			<polyline class="st26" points="83.1,46.49994 78.9,44.59994 83.1,42.69994 87.2,44.59994 			"/>
			<polyline class="st64" points="78.9,44.59994 74.7,42.69994 78.9,40.69994 83.1,42.69994 			"/>
			<polyline class="st20" points="74.7,42.69994 70.6,40.69994 74.7,38.79994 78.9,40.69994 			"/>
			<polyline class="st23" points="70.6,40.69994 66.4,38.79994 70.6,36.79994 74.7,38.79994 			"/>
			<polyline class="st47" points="66.4,38.79994 62.3,36.79994 66.4,34.89994 70.6,36.79994 			"/>
			<polyline class="st14" points="62.3,36.79994 58.1,34.89994 62.3,32.99994 66.4,34.89994 			"/>
			<polyline class="st22" points="58.1,34.89994 53.9,32.99994 58.1,30.99994 62.3,32.99994 			"/>
			<polyline class="st25" points="53.9,32.99994 49.8,30.99994 53.9,29.09994 58.1,30.99994 			"/>
			<polyline class="st49" points="49.8,30.99994 45.6,29.09994 49.8,27.09994 53.9,29.09994 			"/>
			<polyline class="st65" points="45.6,29.09994 41.5,27.09994 45.6,25.19994 49.8,27.09994 			"/>
			<polyline class="st64" points="41.5,27.09994 37.3,25.19994 41.5,23.29994 45.6,25.19994 			"/>
			<polyline class="st9" points="37.3,25.19994 33.1,23.29994 37.3,21.29994 41.5,23.29994 			"/>
			<polyline class="st55" points="33.1,23.29994 29,21.29994 33.1,19.39994 37.3,21.29994 			"/>
			<polyline class="st21" points="29,21.29994 24.8,19.39994 29,17.49994 33.1,19.39994 			"/>
			<polyline class="st22" points="95.6,48.49994 91.4,46.49994 95.6,44.59994 99.7,46.49994 			"/>
			<polyline class="st39" points="91.4,46.49994 87.2,44.59994 91.4,42.69994 95.6,44.59994 			"/>
			<polyline class="st23" points="87.2,44.59994 83.1,42.69994 87.2,40.69994 91.4,42.69994 			"/>
			<polyline class="st58" points="83.1,42.69994 78.9,40.69994 83.1,38.79994 87.2,40.69994 			"/>
			<polyline class="st66" points="78.9,40.69994 74.7,38.79994 78.9,36.79994 83.1,38.79994 			"/>
			<polyline class="st67" points="74.7,38.79994 70.6,36.79994 74.7,34.89994 78.9,36.79994 			"/>
			<polyline class="st68" points="70.6,36.79994 66.4,34.89994 70.6,32.99994 74.7,34.89994 			"/>
			<polyline class="st69" points="66.4,34.89994 62.3,32.99994 66.4,30.99994 70.6,32.99994 			"/>
			<polyline class="st62" points="62.3,32.99994 58.1,30.99994 62.3,29.09994 66.4,30.99994 			"/>
			<polyline class="st70" points="58.1,30.99994 53.9,29.09994 58.1,27.09994 62.3,29.09994 			"/>
			<polyline class="st38" points="53.9,29.09994 49.8,27.09994 53.9,25.19994 58.1,27.09994 			"/>
			<polyline class="st68" points="49.8,27.09994 41.5,23.29994 45.6,21.29994 53.9,25.19994 			"/>
			<polyline class="st42" points="41.5,23.29994 37.3,21.29994 41.5,19.39994 45.6,21.29994 			"/>
			<polyline class="st34" points="37.3,21.29994 33.1,19.39994 37.3,17.49994 41.5,19.39994 			"/>
			<polyline class="st5" points="33.1,19.39994 29,17.49994 33.1,15.49994 37.3,17.49994 			"/>
			<polyline class="st25" points="99.7,46.49994 95.6,44.59994 99.7,42.69994 103.9,44.59994 			"/>
			<polyline class="st22" points="95.6,44.59994 91.4,42.69994 95.6,40.69994 99.7,42.69994 			"/>
			<polyline class="st71" points="91.4,42.69994 87.2,40.69994 91.4,38.79994 95.6,40.69994 			"/>
			<polyline class="st72" points="87.2,40.69994 83.1,38.79994 87.2,36.79994 91.4,38.79994 			"/>
			<polyline class="st38" points="83.1,38.79994 78.9,36.79994 83.1,34.89994 87.2,36.79994 			"/>
			<polyline class="st14" points="78.9,36.79994 74.7,34.89994 78.9,32.99994 83.1,34.89994 			"/>
			<polyline class="st57" points="74.7,34.89994 70.6,32.99994 74.7,30.99994 78.9,32.99994 			"/>
			<polyline class="st15" points="70.6,32.99994 66.4,30.99994 70.6,29.09994 74.7,30.99994 			"/>
			<polyline class="st43" points="66.4,30.99994 62.3,29.09994 66.4,27.09994 70.6,29.09994 			"/>
			<polyline class="st12" points="62.3,29.09994 58.1,27.09994 62.3,25.19994 66.4,27.09994 			"/>
			<polyline class="st73" points="58.1,27.09994 53.9,25.19994 58.1,23.29994 62.3,25.19994 			"/>
			<polyline class="st3" points="53.9,25.19994 49.8,23.29994 53.9,21.29994 58.1,23.29994 			"/>
			<polyline class="st74" points="49.8,23.29994 45.6,21.29994 49.8,19.39994 53.9,21.29994 			"/>
			<polyline class="st19" points="45.6,21.29994 41.5,19.39994 45.6,17.49994 49.8,19.39994 			"/>
			<polyline class="st14" points="41.5,19.39994 37.3,17.49994 41.5,15.49994 45.6,17.49994 			"/>
			<polyline class="st72" points="37.3,17.49994 33.1,15.49994 37.3,13.59994 41.5,15.49994 			"/>
			<polyline class="st8" points="103.9,44.59994 99.7,42.69994 103.9,40.69994 108,42.69994 			"/>
			<polyline class="st11" points="99.7,42.69994 95.6,40.69994 99.7,38.79994 103.9,40.69994 			"/>
			<polyline class="st75" points="95.6,40.69994 91.4,38.79994 95.5,36.79994 99.7,38.79994 			"/>
			<polyline class="st47" points="91.4,38.79994 87.2,36.79994 91.4,34.89994 95.5,36.79994 			"/>
			<polyline class="st76" points="87.2,36.79994 83.1,34.89994 87.2,32.99994 91.4,34.89994 			"/>
			<polyline class="st77" points="83.1,34.89994 78.9,32.99994 83.1,30.99994 87.2,32.99994 			"/>
			<polyline class="st78" points="78.9,32.99994 74.7,30.99994 78.9,29.09994 83.1,30.99994 			"/>
			<polyline class="st43" points="74.7,30.99994 70.6,29.09994 74.7,27.09994 78.9,29.09994 			"/>
			<polyline class="st22" points="70.6,29.09994 66.4,27.09994 70.6,25.19994 74.7,27.09994 			"/>
			<polyline class="st50" points="66.4,27.09994 62.3,25.19994 66.4,23.29994 70.6,25.19994 			"/>
			<polyline class="st4" points="62.3,25.19994 58.1,23.29994 62.3,21.29994 66.4,23.29994 			"/>
			<polyline class="st54" points="58.1,23.29994 53.9,21.29994 58.1,19.39994 62.3,21.29994 			"/>
			<polyline class="st47" points="53.9,21.29994 49.8,19.39994 53.9,17.49994 58.1,19.39994 			"/>
			<polyline class="st61" points="49.8,19.39994 45.6,17.49994 49.8,15.49994 53.9,17.49994 			"/>
			<polyline class="st34" points="45.6,17.49994 41.5,15.49994 45.6,13.59994 49.8,15.49994 			"/>
			<polyline class="st22" points="41.5,15.49994 37.3,13.59994 41.5,11.59994 45.6,13.59994 			"/>
			<polyline class="st10" points="108,42.69994 103.9,40.69994 108,38.79994 112.2,40.69994 			"/>
			<polyline class="st64" points="103.9,40.69994 99.7,38.79994 103.9,36.79994 108,38.79994 			"/>
			<polyline class="st2" points="99.7,38.79994 95.5,36.79994 99.7,34.89994 103.9,36.79994 			"/>
			<polyline class="st79" points="95.5,36.79994 91.4,34.89994 95.6,32.99994 99.7,34.89994 			"/>
			<polyline class="st4" points="91.4,34.89994 87.2,32.99994 91.4,30.99994 95.6,32.99994 			"/>
			<polyline class="st2" points="87.2,32.99994 83.1,30.99994 87.2,29.09994 91.4,30.99994 			"/>
			<polyline class="st10" points="83.1,30.99994 78.9,29.09994 83.1,27.09994 87.2,29.09994 			"/>
			<polyline class="st2" points="78.9,29.09994 74.7,27.09994 78.9,25.19994 83.1,27.09994 			"/>
			<polyline class="st34" points="74.7,27.09994 70.6,25.19994 74.7,23.29994 78.9,25.19994 			"/>
			<polyline class="st10" points="70.6,25.19994 66.4,23.29994 70.6,21.29994 74.7,23.29994 			"/>
			<polyline class="st15" points="66.4,23.29994 62.3,21.29994 66.4,19.39994 70.6,21.29994 			"/>
			<polyline class="st5" points="62.3,21.29994 58.1,19.39994 62.3,17.49994 66.4,19.39994 			"/>
			<polyline class="st32" points="58.1,19.39994 53.9,17.49994 58.1,15.49994 62.3,17.49994 			"/>
			<polyline class="st80" points="53.9,17.49994 49.8,15.49994 53.9,13.59994 58.1,15.49994 			"/>
			<polyline class="st49" points="49.8,15.49994 45.6,13.59994 49.8,11.59994 53.9,13.59994 			"/>
			<polyline class="st81" points="45.6,13.59994 41.5,11.59994 45.6,9.69994 49.8,11.59994 			"/>
			<polyline class="st64" points="112.2,40.69994 108,38.79994 112.2,36.79994 116.4,38.79994 			"/>
			<polyline class="st28" points="108,38.79994 103.9,36.79994 108,34.89994 112.2,36.79994 			"/>
			<polyline class="st82" points="103.9,36.79994 99.7,34.89994 103.9,32.99994 108,34.89994 			"/>
			<polyline class="st68" points="99.7,34.89994 95.6,32.99994 99.7,30.99994 103.9,32.99994 			"/>
			<polyline class="st32" points="95.6,32.99994 91.4,30.99994 95.5,29.09994 99.7,30.99994 			"/>
			<polyline class="st22" points="91.4,30.99994 87.2,29.09994 91.4,27.09994 95.5,29.09994 			"/>
			<polyline class="st41" points="87.2,29.09994 83.1,27.09994 87.2,25.19994 91.4,27.09994 			"/>
			<polyline class="st83" points="83.1,27.09994 78.9,25.19994 83.1,23.29994 87.2,25.19994 			"/>
			<polyline class="st76" points="78.9,25.19994 74.7,23.29994 78.9,21.29994 83.1,23.29994 			"/>
			<polyline class="st28" points="74.7,23.29994 70.6,21.29994 74.7,19.39994 78.9,21.29994 			"/>
			<polyline class="st84" points="70.6,21.29994 66.4,19.39994 70.6,17.49994 74.7,19.39994 			"/>
			<polyline class="st70" points="66.4,19.39994 62.3,17.49994 66.4,15.49994 70.6,17.49994 			"/>
			<polyline class="st85" points="62.3,17.49994 58.1,15.49994 62.3,13.59994 66.4,15.49994 			"/>
			<polyline class="st70" points="58.1,15.49994 53.9,13.59994 58.1,11.59994 62.3,13.59994 			"/>
			<polyline class="st4" points="53.9,13.59994 49.8,11.59994 53.9,9.69994 58.1,11.59994 			"/>
			<polyline class="st36" points="49.8,11.59994 45.6,9.69994 49.8,7.79994 53.9,9.69994 			"/>
			<polyline class="st46" points="116.4,38.79994 112.2,36.79994 116.4,34.89994 120.5,36.79994 			"/>
			<polyline class="st64" points="112.2,36.79994 108,34.89994 112.2,32.99994 116.4,34.89994 			"/>
			<polyline class="st74" points="108,34.89994 103.9,32.99994 108,30.99994 112.2,32.99994 			"/>
			<polyline class="st86" points="103.9,32.99994 99.7,30.99994 103.9,29.09994 108,30.99994 			"/>
			<polyline class="st21" points="99.7,30.99994 95.5,29.09994 99.7,27.09994 103.9,29.09994 			"/>
			<polyline class="st87" points="95.5,29.09994 91.4,27.09994 95.6,25.19994 99.7,27.09994 			"/>
			<polyline class="st4" points="91.4,27.09994 87.2,25.19994 91.4,23.29994 95.6,25.19994 			"/>
			<polyline class="st22" points="87.2,25.19994 83.1,23.29994 87.2,21.29994 91.4,23.29994 			"/>
			<polyline class="st52" points="83.1,23.29994 78.9,21.29994 83.1,19.39994 87.2,21.29994 			"/>
			<polyline class="st46" points="78.9,21.29994 74.7,19.39994 78.9,17.49994 83.1,19.39994 			"/>
			<polyline class="st49" points="74.7,19.39994 70.6,17.49994 74.7,15.49994 78.9,17.49994 			"/>
			<polyline class="st72" points="70.6,17.49994 66.4,15.49994 70.6,13.59994 74.7,15.49994 			"/>
			<polyline class="st15" points="66.4,15.49994 62.3,13.59994 66.4,11.59994 70.6,13.59994 			"/>
			<polyline class="st28" points="62.3,13.59994 58.1,11.59994 62.3,9.69994 66.4,11.59994 			"/>
			<polyline class="st16" points="58.1,11.59994 53.9,9.69994 58.1,7.79994 62.3,9.69994 			"/>
			<polyline class="st40" points="53.9,9.69994 49.8,7.79994 53.9,5.79994 58.1,7.79994 			"/>
			<polyline class="st42" points="120.5,36.79994 116.4,34.89994 120.5,32.99994 124.7,34.89994 			"/>
			<polyline class="st88" points="116.4,34.89994 112.2,32.99994 116.4,30.99994 120.5,32.99994 			"/>
			<polyline class="st41" points="112.2,32.99994 108,30.99994 112.2,29.09994 116.4,30.99994 			"/>
			<polyline class="st89" points="108,30.99994 103.9,29.09994 108,27.09994 112.2,29.09994 			"/>
			<polyline class="st76" points="103.9,29.09994 99.7,27.09994 103.9,25.19994 108,27.09994 			"/>
			<polyline class="st90" points="99.7,27.09994 95.6,25.19994 99.7,23.29994 103.9,25.19994 			"/>
			<polyline class="st91" points="95.6,25.19994 91.4,23.29994 95.6,21.29994 99.7,23.29994 			"/>
			<polyline class="st10" points="91.4,23.29994 87.2,21.29994 91.4,19.39994 95.6,21.29994 			"/>
			<polyline class="st47" points="87.2,21.29994 83.1,19.39994 87.2,17.49994 91.4,19.39994 			"/>
			<polyline class="st72" points="83.1,19.39994 78.9,17.49994 83.1,15.49994 87.2,17.49994 			"/>
			<polyline class="st2" points="78.9,17.49994 74.7,15.49994 78.9,13.59994 83.1,15.49994 			"/>
			<polyline class="st14" points="74.7,15.49994 70.6,13.59994 74.7,11.59994 78.9,13.59994 			"/>
			<polyline class="st55" points="70.6,13.59994 66.4,11.59994 70.6,9.69994 74.7,11.59994 			"/>
			<polyline class="st92" points="66.4,11.59994 62.3,9.69994 66.4,7.79994 70.6,9.69994 			"/>
			<polyline class="st93" points="62.3,9.69994 58.1,7.79994 62.3,5.79994 66.4,7.79994 			"/>
			<polyline class="st30" points="58.1,7.79994 53.9,5.79994 58.1,3.89994 62.3,5.79994 			"/>
			<polyline class="st74" points="124.7,34.89994 120.5,32.99994 124.7,30.99994 128.8,32.99994 			"/>
			<polyline class="st2" points="120.5,32.99994 116.4,30.99994 120.5,29.09994 124.7,30.99994 			"/>
			<polyline class="st53" points="116.4,30.99994 112.2,29.09994 116.4,27.09994 120.5,29.09994 			"/>
			<polyline class="st5" points="112.2,29.09994 108,27.09994 112.2,25.19994 116.4,27.09994 			"/>
			<polyline class="st24" points="108,27.09994 103.9,25.19994 108,23.29994 112.2,25.19994 			"/>
			<polyline class="st32" points="103.9,25.19994 99.7,23.29994 103.9,21.29994 108,23.29994 			"/>
			<polyline class="st25" points="99.7,23.29994 95.6,21.29994 99.7,19.39994 103.9,21.29994 			"/>
			<polyline class="st22" points="95.6,21.29994 91.4,19.39994 95.6,17.49994 99.7,19.39994 			"/>
			<polyline class="st5" points="91.4,19.39994 87.2,17.49994 91.4,15.49994 95.6,17.49994 			"/>
			<polyline class="st28" points="87.2,17.49994 83.1,15.49994 87.2,13.59994 91.4,15.49994 			"/>
			<polyline class="st22" points="83.1,15.49994 78.9,13.59994 83.1,11.59994 87.2,13.59994 			"/>
			<polyline class="st94" points="78.9,13.59994 74.7,11.59994 78.9,9.69994 83.1,11.59994 			"/>
			<polyline class="st11" points="74.7,11.59994 70.6,9.69994 74.7,7.79994 78.9,9.69994 			"/>
			<polyline class="st71" points="70.6,9.69994 66.4,7.79994 70.6,5.79994 74.7,7.79994 			"/>
			<polyline class="st53" points="66.4,7.79994 62.3,5.79994 66.4,3.89994 70.6,5.79994 			"/>
			<polyline class="st21" points="62.3,5.79994 58.1,3.89994 62.3,1.89994 66.4,3.89994 			"/>
			<polyline class="st64" points="128.8,32.99994 124.7,30.99994 128.8,29.09994 133,30.99994 			"/>
			<polyline class="st95" points="124.7,30.99994 120.5,29.09994 124.7,27.09994 128.8,29.09994 			"/>
			<polyline class="st5" points="120.5,29.09994 116.4,27.09994 120.5,25.19994 124.7,27.09994 			"/>
			<polyline class="st28" points="116.4,27.09994 112.2,25.19994 116.4,23.29994 120.5,25.19994 			"/>
			<polyline class="st89" points="112.2,25.19994 108,23.29994 112.2,21.29994 116.4,23.29994 			"/>
			<polyline class="st96" points="108,23.29994 103.9,21.29994 108,19.39994 112.2,21.29994 			"/>
			<polyline class="st97" points="103.9,21.29994 99.7,19.39994 103.9,17.49994 108,19.39994 			"/>
			<polyline class="st19" points="99.7,19.39994 95.6,17.49994 99.7,15.49994 103.9,17.49994 			"/>
			<polyline class="st65" points="95.6,17.49994 91.4,15.49994 95.6,13.59994 99.7,15.49994 			"/>
			<polyline class="st22" points="91.4,15.49994 87.2,13.59994 91.4,11.59994 95.6,13.59994 			"/>
			<polyline class="st8" points="87.2,13.59994 83.1,11.59994 87.2,9.69994 91.4,11.59994 			"/>
			<polyline class="st89" points="83.1,11.59994 74.7,7.79994 78.9,5.79994 87.2,9.69994 			"/>
			<polyline class="st24" points="74.7,7.79994 70.6,5.79994 74.7,3.89994 78.9,5.79994 			"/>
			<polyline class="st15" points="70.6,5.79994 66.4,3.89994 70.6,1.89994 74.7,3.89994 			"/>
			<polyline class="st10" points="66.4,3.89994 62.3,1.89994 66.4,-0.00006 70.6,1.89994 			"/>
		</g>
		<g>
			<polyline class="st98" points="-0.2,30.89994 4,32.89994 4,37.99994 -0.2,36.09994 			"/>
			<polygon class="st99" points="4,32.89994 8.2,34.79994 8.2,39.99994 4,37.99994 			"/>
			<polygon class="st100" points="8.2,34.79994 12.3,36.79994 12.3,41.89994 8.2,39.99994 			"/>
			<polygon class="st101" points="12.3,36.79994 20.7,40.69994 20.7,45.79994 12.3,41.89994 			"/>
			<polyline class="st102" points="20.7,40.69994 24.8,42.59994 24.8,47.69994 20.7,45.79994 			"/>
			<polygon class="st103" points="24.8,42.59994 29,44.49994 29,49.69994 24.8,47.69994 			"/>
			<polygon class="st104" points="29,44.49994 33.2,46.49994 33.2,51.59994 29,49.69994 			"/>
			<polygon class="st105" points="33.2,46.49994 37.3,48.39994 37.3,53.59994 33.2,51.59994 			"/>
			<polyline class="st99" points="37.3,48.39994 41.5,50.39994 41.5,55.49994 37.3,53.59994 			"/>
			<polyline class="st106" points="41.5,50.39994 45.7,52.29994 45.7,57.39994 41.5,55.49994 			"/>
			<polyline class="st107" points="45.7,52.29994 49.8,54.29994 49.8,59.39994 45.7,57.39994 			"/>
			<polyline class="st108" points="49.8,54.29994 54,56.19994 54,61.29994 49.8,59.39994 			"/>
			<polyline class="st109" points="54,56.19994 58.2,58.09994 58.2,63.29994 54,61.29994 			"/>
			<polyline class="st110" points="58.2,58.09994 62.3,60.09994 62.3,65.19994 58.2,63.29994 			"/>
			<polyline class="st111" points="62.3,60.09994 66.5,61.99994 66.5,67.19994 62.3,65.19994 			"/>
			<polygon class="st112" points="-0.2,36.09994 4,37.99994 4,43.09994 -0.2,41.19994 			"/>
			<polygon class="st104" points="4,37.99994 8.2,39.99994 8.2,45.09994 4,43.09994 			"/>
			<polygon class="st113" points="8.2,39.99994 12.3,41.89994 12.3,46.99994 8.2,45.09994 			"/>
			<polygon class="st114" points="12.3,41.89994 16.5,43.79994 16.5,48.99994 12.3,46.99994 			"/>
			<polygon class="st115" points="16.5,43.79994 20.7,45.79994 20.7,50.89994 16.5,48.99994 			"/>
			<polygon class="st116" points="20.7,45.79994 24.8,47.69994 24.8,57.99994 29,59.89994 29,54.79994 33.2,56.69994 33.2,66.99994 
				20.7,61.19994 			"/>
			<polygon class="st117" points="24.8,47.69994 29,49.69994 29,54.79994 24.8,52.89994 			"/>
			<polygon class="st118" points="29,49.69994 33.2,51.59994 33.2,56.69994 29,54.79994 			"/>
			<polygon class="st103" points="33.2,51.59994 37.3,53.59994 37.3,58.69994 33.2,56.69994 			"/>
			<polyline class="st119" points="37.3,53.59994 41.5,55.49994 41.5,60.59994 37.3,58.69994 			"/>
			<polyline class="st120" points="41.5,55.49994 45.7,57.39994 45.7,62.59994 41.5,60.59994 			"/>
			<polyline class="st100" points="45.7,57.39994 49.8,59.39994 49.8,64.49994 45.7,62.59994 			"/>
			<polyline class="st109" points="49.8,59.39994 54,61.29994 54,66.49994 49.8,64.49994 			"/>
			<polyline class="st104" points="54,61.29994 58.2,63.29994 58.2,68.39994 54,66.49994 			"/>
			<polyline class="st107" points="58.2,63.29994 62.3,65.19994 62.3,70.29994 58.2,68.39994 			"/>
			<polyline class="st121" points="62.3,65.19994 66.5,67.19994 66.5,72.29994 62.3,70.29994 			"/>
			<polygon class="st122" points="-0.2,41.19994 4,43.09994 4,48.29994 -0.2,46.29994 			"/>
			<polygon class="st116" points="4,43.09994 8.2,45.09994 8.2,50.19994 4,48.29994 			"/>
			<polyline class="st123" points="8.2,45.09994 12.3,46.99994 12.3,52.19994 8.2,50.19994 			"/>
			<polygon class="st124" points="12.3,46.99994 16.5,48.99994 16.5,54.09994 12.3,52.19994 			"/>
			<polygon class="st108" points="16.5,48.99994 20.7,50.89994 20.7,55.99994 16.5,54.09994 			"/>
			<polygon class="st125" points="24.8,52.89994 29,54.79994 29,59.89994 24.8,57.99994 			"/>
			<polygon class="st98" points="33.2,56.69994 37.3,58.69994 37.3,63.79994 33.2,61.89994 			"/>
			<polyline class="st126" points="37.3,58.69994 41.5,60.59994 41.5,65.79994 37.3,63.79994 			"/>
			<polyline class="st127" points="41.5,60.59994 45.7,62.59994 45.7,67.69994 41.5,65.79994 			"/>
			<polyline class="st128" points="45.7,62.59994 49.8,64.49994 49.8,69.59994 45.7,67.69994 			"/>
			<polyline class="st116" points="49.8,64.49994 54,66.49994 54,71.59994 49.8,69.59994 			"/>
			<polyline class="st129" points="54,66.49994 58.2,68.39994 58.2,73.49994 54,71.59994 			"/>
			<polyline class="st103" points="58.2,68.39994 62.3,70.29994 62.3,75.49994 58.2,73.49994 			"/>
			<polyline class="st116" points="62.3,70.29994 66.5,72.29994 66.5,77.39994 62.3,75.49994 			"/>
			<polyline class="st116" points="-0.2,46.29994 4,48.29994 4,53.39994 -0.2,51.49994 			"/>
			<polygon class="st130" points="4,48.29994 8.2,50.19994 8.2,55.29994 4,53.39994 			"/>
			<polyline class="st116" points="8.2,50.19994 16.5,54.09994 16.5,59.19994 8.2,55.29994 			"/>
			<polygon class="st131" points="16.5,54.09994 20.7,55.99994 20.7,61.19994 16.5,59.19994 			"/>
			<polygon class="st103" points="33.2,61.89994 37.3,63.79994 37.3,68.89994 33.2,66.99994 			"/>
			<polygon class="st116" points="37.3,63.79994 41.5,65.79994 41.5,70.89994 45.7,72.79994 45.7,77.99994 37.3,74.09994 
				37.3,79.19994 24.8,73.39994 24.8,68.19994 33.2,72.09994 33.2,66.99994 37.3,68.89994 			"/>
			<polygon class="st111" points="41.5,65.79994 45.7,67.69994 45.7,72.79994 41.5,70.89994 			"/>
			<polygon class="st116" points="45.7,67.69994 49.8,69.59994 49.8,74.79994 45.7,72.79994 			"/>
			<polygon class="st0" points="49.8,69.59994 54,71.59994 54,81.79994 62.3,85.69994 62.3,95.99994 58.2,93.99994 58.2,88.89994 
				54,86.99994 54,92.09994 58.2,93.99994 58.2,104.29994 49.8,100.39994 49.8,115.79994 58.2,119.69994 58.2,124.79994 
				54,122.89994 54,127.99994 58.2,129.89993 58.2,135.09995 49.8,131.19994 49.8,120.89994 37.3,115.09994 37.3,120.19994 
				45.7,124.09994 45.7,129.19994 49.8,131.19994 49.8,136.29994 41.5,132.39993 41.5,127.29994 33.2,123.39994 33.2,113.09994 
				29,111.19994 29,106.09994 45.7,113.79994 45.7,103.59994 29,95.79994 29,90.69994 33.2,92.59994 33.2,87.49994 37.3,89.49994 
				37.3,94.59994 45.7,98.49994 45.7,93.29994 49.8,95.29994 			"/>
			<polyline class="st116" points="54,71.59994 62.3,75.49994 62.3,85.69994 58.2,83.79994 58.2,78.69994 54,76.69994 			"/>
			<polyline class="st0" points="62.3,75.49994 66.5,77.39994 66.5,87.69994 62.3,85.69994 			"/>
			<polygon class="st132" points="-0.2,51.49994 4,53.39994 4,58.49994 -0.2,56.59994 			"/>
			<polyline class="st0" points="4,53.39994 8.2,55.29994 8.2,60.49994 4,58.49994 			"/>
			<polygon class="st132" points="8.2,55.29994 12.3,57.29994 12.3,62.39994 16.5,64.39994 16.5,69.49994 8.2,65.59994 			"/>
			<polygon class="st133" points="12.3,57.29994 16.5,59.19994 16.5,64.39994 12.3,62.39994 			"/>
			<polygon class="st116" points="16.5,59.19994 20.7,61.19994 20.7,66.29994 16.5,64.39994 			"/>
			<polygon class="st132" points="20.7,61.19994 24.8,63.09994 24.8,73.39994 20.7,71.39994 			"/>
			<polygon class="st0" points="24.8,63.09994 33.2,66.99994 33.2,72.09994 24.8,68.19994 			"/>
			<polygon class="st130" points="45.7,72.79994 49.8,74.79994 49.8,79.89994 45.7,77.99994 			"/>
			<polyline class="st132" points="54,76.69994 58.2,78.69994 58.2,83.79994 54,81.79994 			"/>
			<polygon class="st0" points="-0.2,56.59994 4,58.49994 4,63.69994 -0.2,61.69994 			"/>
			<polygon class="st116" points="4,58.49994 8.2,60.49994 8.2,70.69994 4,68.79994 			"/>
			<polygon class="st0" points="16.5,64.39994 20.7,66.29994 20.7,71.39994 16.5,69.49994 			"/>
			<polygon class="st0" points="37.3,74.09994 45.7,77.99994 45.7,83.09994 41.5,81.09994 41.5,86.29994 37.3,84.29994 			"/>
			<polygon class="st116" points="45.7,77.99994 49.8,79.89994 49.8,84.99994 45.7,83.09994 			"/>
			<polyline class="st133" points="62.3,85.69994 66.5,87.69994 66.5,92.79994 62.3,90.89994 			"/>
			<polyline class="st133" points="-0.2,61.69994 4,63.69994 4,73.89994 -0.2,71.99994 			"/>
			<polygon class="st0" points="8.2,65.59994 16.5,69.49994 16.5,74.59994 8.2,70.69994 			"/>
			<polygon class="st134" points="16.5,69.49994 20.7,71.39994 20.7,76.59994 16.5,74.59994 			"/>
			<polygon class="st0" points="20.7,71.39994 29,75.29994 29,80.39994 33.2,82.39994 33.2,87.49994 29,85.59994 29,90.69994 
				24.8,88.79994 24.8,78.49994 20.7,76.59994 			"/>
			<polygon class="st133" points="29,75.29994 37.3,79.19994 37.3,84.29994 29,80.39994 			"/>
			<polygon class="st133" points="41.5,81.09994 49.8,84.99994 49.8,90.19994 41.5,86.29994 			"/>
			<polyline class="st132" points="54,86.99994 58.2,88.89994 58.2,93.99994 54,92.09994 			"/>
			<polyline class="st132" points="62.3,90.89994 66.5,92.79994 66.5,103.09994 58.2,99.19994 58.2,93.99994 62.3,95.99994 			"/>
			<polyline class="st0" points="4,68.79994 8.2,70.69994 8.2,75.89994 12.3,77.79994 12.3,82.89994 4,78.99994 			"/>
			<polyline class="st133" points="8.2,70.69994 16.5,74.59994 16.5,79.69994 8.2,75.89994 			"/>
			<polyline class="st132" points="16.5,74.59994 24.8,78.49994 24.8,88.79994 20.7,86.79994 20.7,81.69994 16.5,79.69994 			"/>
			<polygon class="st132" points="33.2,82.39994 37.3,84.29994 37.3,89.49994 33.2,87.49994 			"/>
			<polygon class="st116" points="37.3,84.29994 41.5,86.29994 41.5,91.39994 37.3,89.49994 			"/>
			<polygon class="st132" points="41.5,86.29994 49.8,90.19994 49.8,95.29994 45.7,93.29994 45.7,98.49994 37.3,94.59994 
				37.3,89.49994 41.5,91.39994 			"/>
			<polyline class="st132" points="-0.2,71.99994 4,73.89994 4,78.99994 8.2,80.99994 8.2,91.19994 4,89.29994 4,94.39994 
				-0.2,92.49994 			"/>
			<polyline class="st132" points="12.3,77.79994 16.5,79.69994 16.5,84.89994 12.3,82.89994 			"/>
			<polyline class="st0" points="16.5,79.69994 20.7,81.69994 20.7,91.89994 12.3,88.09994 12.3,82.89994 16.5,84.89994 			"/>
			<polygon class="st116" points="29,85.59994 33.2,87.49994 33.2,92.59994 29,90.69994 			"/>
			<polyline class="st116" points="58.2,99.19994 62.3,101.09994 62.3,106.19994 58.2,104.29994 			"/>
			<polyline class="st0" points="62.3,101.09994 66.5,103.09994 66.5,108.19994 62.3,106.19994 			"/>
			<polyline class="st116" points="8.2,80.99994 12.3,82.89994 12.3,88.09994 8.2,86.09994 			"/>
			<polyline class="st116" points="20.7,86.79994 29,90.69994 29,95.79994 20.7,91.89994 			"/>
			<polyline class="st133" points="49.8,100.39994 58.2,104.29994 58.2,109.39994 49.8,105.49994 			"/>
			<polyline class="st0" points="58.2,104.29994 62.3,106.19994 62.3,111.39994 58.2,109.39994 			"/>
			<polyline class="st132" points="62.3,106.19994 66.5,108.19994 66.5,113.29994 62.3,111.39994 			"/>
			<polyline class="st0" points="8.2,86.09994 12.3,88.09994 12.3,98.29994 4,94.39994 4,89.29994 8.2,91.19994 			"/>
			<polyline class="st133" points="12.3,88.09994 20.7,91.89994 20.7,97.09994 12.3,93.19994 			"/>
			<polyline class="st0" points="20.7,91.89994 24.8,93.89994 24.8,98.99994 20.7,97.09994 			"/>
			<polyline class="st133" points="24.8,93.89994 29,95.79994 29,100.99994 24.8,98.99994 			"/>
			<polyline class="st132" points="29,95.79994 33.2,97.79994 33.2,107.99994 29,106.09994 			"/>
			<polyline class="st116" points="33.2,97.79994 37.3,99.69994 37.3,104.79994 33.2,102.89994 			"/>
			<polyline class="st133" points="37.3,99.69994 45.7,103.59994 45.7,108.69994 37.3,104.79994 			"/>
			<polyline class="st132" points="49.8,105.49994 58.2,109.39994 58.2,119.69994 54,117.69994 54,112.59994 49.8,110.69994 			"/>
			<polyline class="st134" points="58.2,109.39994 62.3,111.39994 62.3,116.49994 58.2,114.59994 			"/>
			<polyline class="st0" points="62.3,111.39994 66.5,113.29994 66.5,118.39994 62.3,116.49994 			"/>
			<polyline class="st132" points="12.3,93.19994 20.7,97.09994 20.7,102.19994 24.8,104.09994 24.8,109.29994 16.5,105.39994 
				16.5,100.19994 12.3,98.29994 			"/>
			<polyline class="st133" points="20.7,97.09994 24.8,98.99994 24.8,104.09994 20.7,102.19994 			"/>
			<polyline class="st0" points="24.8,98.99994 29,100.99994 29,106.09994 24.8,104.09994 			"/>
			<polyline class="st130" points="33.2,102.89994 37.3,104.79994 37.3,109.99994 33.2,107.99994 			"/>
			<polyline class="st132" points="37.3,104.79994 45.7,108.69994 45.7,113.79994 37.3,109.99994 			"/>
			<polyline class="st116" points="49.8,110.69994 54,112.59994 54,117.69994 49.8,115.79994 			"/>
			<polyline class="st0" points="58.2,114.59994 62.3,116.49994 62.3,121.59994 58.2,119.69994 			"/>
			<polyline class="st116" points="62.3,116.49994 66.5,118.39994 66.5,123.59994 62.3,121.59994 			"/>
			<polyline class="st0" points="-0.2,92.49994 4,94.39994 4,104.69994 -0.2,102.69994 			"/>
			<polyline class="st116" points="4,94.39994 8.2,96.39994 8.2,101.49994 4,99.49994 			"/>
			<polyline class="st132" points="8.2,96.39994 12.3,98.29994 12.3,103.39994 8.2,101.49994 			"/>
			<polyline class="st0" points="12.3,98.29994 16.5,100.19994 16.5,110.49994 8.2,106.59994 8.2,101.49994 12.3,103.39994 			"/>
			<polyline class="st133" points="24.8,104.09994 29,106.09994 29,111.19994 24.8,109.29994 			"/>
			<polyline class="st133" points="58.2,119.69994 66.5,123.59994 66.5,128.69994 58.2,124.79994 			"/>
			<polyline class="st132" points="4,99.49994 8.2,101.49994 8.2,106.59994 4,104.69994 			"/>
			<polyline class="st116" points="16.5,105.39994 20.7,107.29994 20.7,112.39994 16.5,110.49994 			"/>
			<polyline class="st0" points="20.7,107.29994 24.8,109.29994 24.8,114.39994 20.7,112.39994 			"/>
			<polyline class="st132" points="24.8,109.29994 33.2,113.09994 33.2,118.29994 24.8,114.39994 			"/>
			<polyline class="st116" points="37.3,115.09994 41.5,116.99994 41.5,122.19994 37.3,120.19994 			"/>
			<polyline class="st133" points="41.5,116.99994 45.7,118.99994 45.7,124.09994 41.5,122.19994 			"/>
			<polyline class="st116" points="45.7,118.99994 49.8,120.89994 49.8,131.19994 45.7,129.19994 			"/>
			<polyline class="st133" points="54,122.89994 58.2,124.79994 58.2,129.89993 54,127.99994 			"/>
			<polyline class="st132" points="58.2,124.79994 66.5,128.69994 66.5,138.89993 58.2,135.09995 			"/>
			<polyline class="st132" points="-0.2,102.69994 4,104.69994 4,114.89994 -0.2,112.99994 			"/>
			<polyline class="st0" points="4,104.69994 8.2,106.59994 8.2,116.89994 4,114.89994 			"/>
			<polyline class="st116" points="8.2,106.59994 12.3,108.59994 12.3,113.69994 8.2,111.69994 			"/>
			<polyline class="st133" points="12.3,108.59994 16.5,110.49994 16.5,115.59994 12.3,113.69994 			"/>
			<polyline class="st0" points="16.5,110.49994 20.7,112.39994 20.7,117.59994 16.5,115.59994 			"/>
			<polyline class="st116" points="20.7,112.39994 24.8,114.39994 24.8,119.49994 20.7,117.59994 			"/>
			<polyline class="st0" points="24.8,114.39994 29,116.29994 29,121.49994 24.8,119.49994 			"/>
			<polyline class="st116" points="29,116.29994 33.2,118.29994 33.2,123.39994 29,121.49994 			"/>
			<polyline class="st133" points="8.2,111.69994 12.3,113.69994 12.3,118.79994 8.2,116.89994 			"/>
			<polyline class="st132" points="12.3,113.69994 20.7,117.59994 20.7,122.69994 12.3,118.79994 			"/>
			<polyline class="st0" points="20.7,117.59994 24.8,119.49994 24.8,124.59994 20.7,122.69994 			"/>
			<polyline class="st134" points="24.8,119.49994 29,121.49994 29,126.59994 24.8,124.59994 			"/>
			<polyline class="st132" points="29,121.49994 41.5,127.29994 41.5,132.39993 29,126.59994 			"/>
			<polyline class="st132" points="49.8,131.19994 58.2,135.09995 58.2,140.19994 49.8,136.29994 			"/>
			<polyline class="st0" points="58.2,135.09995 62.3,136.99994 62.3,142.09995 58.2,140.19994 			"/>
			<polyline class="st116" points="62.3,136.99994 66.5,138.89993 66.5,144.09995 62.3,142.09995 			"/>
		</g>
		<g>
			<polyline class="st135" points="66.3,61.99994 70.5,60.09994 70.5,65.19994 66.3,67.19994 			"/>
			<polyline class="st136" points="70.5,60.09994 74.7,58.09994 74.7,63.29994 70.5,65.19994 			"/>
			<polyline class="st137" points="74.7,58.09994 78.8,56.19994 78.8,61.29994 74.7,63.29994 			"/>
			<polyline class="st138" points="78.8,56.19994 87.2,52.29994 87.2,57.39994 78.8,61.29994 			"/>
			<polyline class="st139" points="87.2,52.29994 91.3,50.39994 91.3,55.49994 87.2,57.39994 			"/>
			<polyline class="st140" points="91.3,50.39994 95.5,48.39994 95.5,53.59994 91.3,55.49994 			"/>
			<polyline class="st141" points="95.5,48.39994 99.7,46.49994 99.7,51.59994 95.5,53.59994 			"/>
			<polyline class="st142" points="99.7,46.49994 103.8,44.49994 103.8,49.69994 99.7,51.59994 			"/>
			<polyline class="st136" points="103.8,44.49994 108,42.59994 108,47.69994 103.8,49.69994 			"/>
			<polyline class="st143" points="108,42.59994 112.2,40.69994 112.2,45.79994 108,47.69994 			"/>
			<polyline class="st138" points="112.2,40.69994 116.3,38.69994 116.3,43.79994 112.2,45.79994 			"/>
			<polyline class="st144" points="116.3,38.69994 120.5,36.79994 120.5,41.89994 116.3,43.79994 			"/>
			<polyline class="st145" points="120.5,36.79994 124.7,34.79994 124.7,39.99994 120.5,41.89994 			"/>
			<polyline class="st146" points="124.7,34.79994 128.8,32.89994 128.8,37.99994 124.7,39.99994 			"/>
			<polyline class="st147" points="128.8,32.89994 133,30.89994 133,36.09994 128.8,37.99994 			"/>
			<polyline class="st148" points="66.3,67.19994 70.5,65.19994 70.5,70.29994 66.3,72.29994 			"/>
			<polyline class="st141" points="70.5,65.19994 74.7,63.29994 74.7,68.39994 70.5,70.29994 			"/>
			<polyline class="st149" points="74.7,63.29994 78.8,61.29994 78.8,66.49994 74.7,68.39994 			"/>
			<polyline class="st150" points="78.8,61.29994 83,59.39994 83,64.49994 78.8,66.49994 			"/>
			<polyline class="st151" points="83,59.39994 87.2,57.39994 87.2,62.59994 83,64.49994 			"/>
			<polyline class="st152" points="87.2,57.39994 91.3,55.49994 91.3,65.79994 95.5,63.79994 95.5,58.69994 99.7,56.69994 
				99.7,66.99994 87.2,72.79994 			"/>
			<polyline class="st153" points="91.3,55.49994 95.5,53.59994 95.5,58.69994 91.3,60.59994 			"/>
			<polyline class="st145" points="95.5,53.59994 99.7,51.59994 99.7,56.69994 95.5,58.69994 			"/>
			<polyline class="st140" points="99.7,51.59994 103.8,49.69994 103.8,54.79994 99.7,56.69994 			"/>
			<polyline class="st154" points="103.8,49.69994 108,47.69994 108,52.89994 103.8,54.79994 			"/>
			<polyline class="st155" points="108,47.69994 112.2,45.79994 112.2,50.89994 108,52.89994 			"/>
			<polyline class="st137" points="112.2,45.79994 116.3,43.79994 116.3,48.99994 112.2,50.89994 			"/>
			<polyline class="st145" points="116.3,43.79994 120.5,41.89994 120.5,46.99994 116.3,48.99994 			"/>
			<polyline class="st141" points="120.5,41.89994 124.7,39.99994 124.7,45.09994 120.5,46.99994 			"/>
			<polyline class="st138" points="124.7,39.99994 128.8,37.99994 128.8,43.09994 124.7,45.09994 			"/>
			<polyline class="st143" points="128.8,37.99994 133,36.09994 133,41.19994 128.8,43.09994 			"/>
			<polyline class="st156" points="66.3,72.29994 70.5,70.29994 70.5,75.49994 66.3,77.39994 			"/>
			<polyline class="st152" points="70.5,70.29994 74.7,68.39994 74.7,73.49994 70.5,75.49994 			"/>
			<polyline class="st157" points="74.7,68.39994 78.8,66.49994 78.8,71.59994 74.7,73.49994 			"/>
			<polyline class="st158" points="78.8,66.49994 83,64.49994 83,69.59994 78.8,71.59994 			"/>
			<polyline class="st144" points="83,64.49994 87.2,62.59994 87.2,67.69994 83,69.59994 			"/>
			<polyline class="st159" points="91.3,60.59994 95.5,58.69994 95.5,63.79994 91.3,65.79994 			"/>
			<polyline class="st135" points="99.7,56.69994 103.8,54.79994 103.8,59.89994 99.7,61.89994 			"/>
			<polyline class="st160" points="103.8,54.79994 108,52.89994 108,57.99994 103.8,59.89994 			"/>
			<polyline class="st161" points="108,52.89994 112.2,50.89994 112.2,55.99994 108,57.99994 			"/>
			<polyline class="st162" points="112.2,50.89994 116.3,48.99994 116.3,54.09994 112.2,55.99994 			"/>
			<polyline class="st152" points="116.3,48.99994 120.5,46.99994 120.5,52.19994 116.3,54.09994 			"/>
			<polyline class="st163" points="120.5,46.99994 124.7,45.09994 124.7,50.19994 120.5,52.19994 			"/>
			<polyline class="st140" points="124.7,45.09994 128.8,43.09994 128.8,48.29994 124.7,50.19994 			"/>
			<polyline class="st152" points="128.8,43.09994 133,41.19994 133,46.29994 128.8,48.29994 			"/>
			<polyline class="st152" points="66.3,77.39994 70.5,75.49994 70.5,80.59994 66.3,82.49994 			"/>
			<polyline class="st164" points="70.5,75.49994 74.7,73.49994 74.7,78.69994 70.5,80.59994 			"/>
			<polyline class="st152" points="74.7,73.49994 83,69.59994 83,74.79994 74.7,78.69994 			"/>
			<polyline class="st165" points="83,69.59994 87.2,67.69994 87.2,72.79994 83,74.79994 			"/>
			<polyline class="st140" points="99.7,61.89994 103.8,59.89994 103.8,65.09994 99.7,66.99994 			"/>
			<polyline class="st152" points="103.8,59.89994 108,57.99994 108,63.09994 112.2,61.19994 112.2,66.29994 103.8,70.19994 
				103.8,75.29994 91.3,81.09994 91.3,75.99994 99.7,72.09994 99.7,66.99994 103.8,65.09994 			"/>
			<polyline class="st147" points="108,57.99994 112.2,55.99994 112.2,61.19994 108,63.09994 			"/>
			<polyline class="st152" points="112.2,55.99994 116.3,54.09994 116.3,59.19994 112.2,61.19994 			"/>
			<polyline class="st166" points="116.3,54.09994 120.5,52.19994 120.5,62.39994 128.8,58.49994 128.8,68.79994 124.7,70.69994 
				124.7,65.59994 120.5,67.49994 120.5,72.69994 124.7,70.69994 124.7,80.99994 116.3,84.89994 116.3,100.19994 124.7,96.39994 
				124.7,101.49994 120.5,103.39994 120.5,108.59994 124.7,106.59994 124.7,111.69994 116.3,115.59994 116.3,105.39994 
				103.8,111.19994 103.8,116.29994 112.2,112.39994 112.2,117.59994 116.3,115.59994 116.3,120.79994 108,124.59994 108,119.49994 
				99.7,123.39994 99.7,113.09994 95.5,115.09994 95.5,109.99994 112.2,102.19994 112.2,91.89994 95.5,99.69994 95.5,94.59994 
				99.7,92.59994 99.7,87.49994 103.8,85.59994 103.8,90.69994 112.2,86.79994 112.2,81.69994 116.3,79.69994 			"/>
			<polyline class="st152" points="120.5,52.19994 128.8,48.29994 128.8,58.49994 124.7,60.49994 124.7,55.29994 120.5,57.29994 			
				"/>
			<polyline class="st166" points="128.8,48.29994 133,46.29994 133,56.59994 128.8,58.49994 			"/>
			<polyline class="st167" points="66.3,82.49994 70.5,80.59994 70.5,85.69994 66.3,87.69994 			"/>
			<polyline class="st166" points="70.5,80.59994 74.7,78.69994 74.7,83.79994 70.5,85.69994 			"/>
			<polyline class="st167" points="74.7,78.69994 78.8,76.69994 78.8,81.79994 83,79.89994 83,84.99994 74.7,88.89994 			"/>
			<polyline class="st168" points="78.8,76.69994 83,74.79994 83,79.89994 78.8,81.79994 			"/>
			<polyline class="st152" points="83,74.79994 87.2,72.79994 87.2,77.99994 83,79.89994 			"/>
			<polyline class="st167" points="87.2,72.79994 91.3,70.89994 91.3,81.09994 87.2,83.09994 			"/>
			<polyline class="st166" points="91.3,70.89994 99.7,66.99994 99.7,72.09994 91.3,75.99994 			"/>
			<polyline class="st164" points="112.2,61.19994 116.3,59.19994 116.3,64.39994 112.2,66.29994 			"/>
			<polyline class="st167" points="120.5,57.29994 124.7,55.29994 124.7,60.49994 120.5,62.39994 			"/>
			<polyline class="st166" points="66.3,87.69994 70.5,85.69994 70.5,90.89994 66.3,92.79994 			"/>
			<polyline class="st152" points="70.5,85.69994 74.7,83.79994 74.7,93.99994 70.5,95.99994 			"/>
			<polyline class="st166" points="83,79.89994 87.2,77.99994 87.2,83.09994 83,84.99994 			"/>
			<polyline class="st166" points="103.8,70.19994 112.2,66.29994 112.2,71.39994 108,73.39994 108,78.49994 103.8,80.39994 			"/>
			<polyline class="st152" points="112.2,66.29994 116.3,64.39994 116.3,69.49994 112.2,71.39994 			"/>
			<polyline class="st168" points="128.8,58.49994 133,56.59994 133,61.69994 128.8,63.69994 			"/>
			<polyline class="st168" points="66.3,92.79994 70.5,90.89994 70.5,101.09994 66.3,103.09994 			"/>
			<polyline class="st166" points="74.7,88.89994 83,84.99994 83,90.19994 74.7,93.99994 			"/>
			<polyline class="st169" points="83,84.99994 87.2,83.09994 87.2,88.19994 83,90.19994 			"/>
			<polyline class="st166" points="87.2,83.09994 95.5,79.19994 95.5,84.29994 99.7,82.39994 99.7,87.49994 95.5,89.49994 
				95.5,94.59994 91.3,96.49994 91.3,86.29994 87.2,88.19994 			"/>
			<polyline class="st168" points="95.5,79.19994 103.8,75.29994 103.8,80.39994 95.5,84.29994 			"/>
			<polyline class="st168" points="108,73.39994 116.3,69.49994 116.3,74.59994 108,78.49994 			"/>
			<polyline class="st167" points="120.5,67.49994 124.7,65.59994 124.7,70.69994 120.5,72.69994 			"/>
			<polyline class="st167" points="128.8,63.69994 133,61.69994 133,71.99994 124.7,75.89994 124.7,70.69994 128.8,68.79994 			"/>
			<polyline class="st166" points="70.5,95.99994 74.7,93.99994 74.7,99.19994 78.8,97.19994 78.8,102.39994 70.5,106.19994 			"/>
			<polyline class="st168" points="74.7,93.99994 83,90.19994 83,95.29994 74.7,99.19994 			"/>
			<polyline class="st167" points="83,90.19994 91.3,86.29994 91.3,96.49994 87.2,98.49994 87.2,93.29994 83,95.29994 			"/>
			<polyline class="st167" points="99.7,82.39994 103.8,80.39994 103.8,85.59994 99.7,87.49994 			"/>
			<polyline class="st152" points="103.8,80.39994 108,78.49994 108,83.59994 103.8,85.59994 			"/>
			<polyline class="st167" points="108,78.49994 116.3,74.59994 116.3,79.69994 112.2,81.69994 112.2,86.79994 103.8,90.69994 
				103.8,85.59994 108,83.59994 			"/>
			<polyline class="st167" points="66.3,103.09994 70.5,101.09994 70.5,106.19994 74.7,104.29994 74.7,114.59994 70.5,116.49994 
				70.5,121.59994 66.3,123.59994 			"/>
			<polyline class="st167" points="78.8,97.19994 83,95.29994 83,100.39994 78.8,102.39994 			"/>
			<polyline class="st166" points="83,95.29994 87.2,93.29994 87.2,103.59994 78.8,107.49994 78.8,102.39994 83,100.39994 			"/>
			<polyline class="st152" points="95.5,89.49994 99.7,87.49994 99.7,92.59994 95.5,94.59994 			"/>
			<polyline class="st152" points="124.7,75.89994 128.8,73.89994 128.8,78.99994 124.7,80.99994 			"/>
			<polyline class="st166" points="128.8,73.89994 133,71.99994 133,77.09994 128.8,78.99994 			"/>
			<polyline class="st152" points="74.7,104.29994 78.8,102.39994 78.8,107.49994 74.7,109.39994 			"/>
			<polyline class="st152" points="87.2,98.49994 95.5,94.59994 95.5,99.69994 87.2,103.59994 			"/>
			<polyline class="st168" points="116.3,84.89994 124.7,80.99994 124.7,86.09994 116.3,89.99994 			"/>
			<polyline class="st166" points="124.7,80.99994 128.8,78.99994 128.8,84.19994 124.7,86.09994 			"/>
			<polyline class="st167" points="128.8,78.99994 133,77.09994 133,82.19994 128.8,84.19994 			"/>
			<polyline class="st166" points="74.7,109.39994 78.8,107.49994 78.8,117.69994 70.5,121.59994 70.5,116.49994 74.7,114.59994 			
				"/>
			<polyline class="st168" points="78.8,107.49994 87.2,103.59994 87.2,108.69994 78.8,112.59994 			"/>
			<polyline class="st166" points="87.2,103.59994 91.3,101.69994 91.3,106.79994 87.2,108.69994 			"/>
			<polyline class="st168" points="91.3,101.69994 95.5,99.69994 95.5,104.79994 91.3,106.79994 			"/>
			<polyline class="st167" points="95.5,99.69994 99.7,97.79994 99.7,107.99994 95.5,109.99994 			"/>
			<polyline class="st152" points="99.7,97.79994 103.8,95.79994 103.8,100.99994 99.7,102.89994 			"/>
			<polyline class="st168" points="103.8,95.79994 112.2,91.89994 112.2,97.09994 103.8,100.99994 			"/>
			<polyline class="st167" points="116.3,89.99994 124.7,86.09994 124.7,96.39994 120.5,98.29994 120.5,93.19994 116.3,95.09994 			
				"/>
			<polyline class="st169" points="124.7,86.09994 128.8,84.19994 128.8,89.29994 124.7,91.19994 			"/>
			<polyline class="st166" points="128.8,84.19994 133,82.19994 133,87.39994 128.8,89.29994 			"/>
			<polyline class="st167" points="78.8,112.59994 87.2,108.69994 87.2,113.79994 91.3,111.89994 91.3,116.99994 83,120.89994 
				83,115.79994 78.8,117.69994 			"/>
			<polyline class="st168" points="87.2,108.69994 91.3,106.79994 91.3,111.89994 87.2,113.79994 			"/>
			<polyline class="st166" points="91.3,106.79994 95.5,104.79994 95.5,109.99994 91.3,111.89994 			"/>
			<polyline class="st164" points="99.7,102.89994 103.8,100.99994 103.8,106.09994 99.7,107.99994 			"/>
			<polyline class="st167" points="103.8,100.99994 112.2,97.09994 112.2,102.19994 103.8,106.09994 			"/>
			<polyline class="st152" points="116.3,95.09994 120.5,93.19994 120.5,98.29994 116.3,100.19994 			"/>
			<polyline class="st166" points="124.7,91.19994 128.8,89.29994 128.8,94.39994 124.7,96.39994 			"/>
			<polyline class="st152" points="128.8,89.29994 133,87.39994 133,92.49994 128.8,94.39994 			"/>
			<polyline class="st166" points="66.3,123.59994 70.5,121.59994 70.5,131.89993 66.3,133.79994 			"/>
			<polyline class="st152" points="70.5,121.59994 74.7,119.69994 74.7,124.79994 70.5,126.69994 			"/>
			<polyline class="st167" points="74.7,119.69994 78.8,117.69994 78.8,122.89994 74.7,124.79994 			"/>
			<polyline class="st166" points="78.8,117.69994 83,115.79994 83,125.99994 74.7,129.89993 74.7,124.79994 78.8,122.89994 			"/>
			<polyline class="st168" points="91.3,111.89994 95.5,109.99994 95.5,115.09994 91.3,116.99994 			"/>
			<polyline class="st168" points="124.7,96.39994 133,92.49994 133,97.59994 124.7,101.49994 			"/>
			<polyline class="st167" points="70.5,126.69994 74.7,124.79994 74.7,129.89993 70.5,131.89993 			"/>
			<polyline class="st152" points="83,120.89994 87.2,118.99994 87.2,124.09994 83,125.99994 			"/>
			<polyline class="st166" points="87.2,118.99994 91.3,116.99994 91.3,122.19994 87.2,124.09994 			"/>
			<polyline class="st167" points="91.3,116.99994 99.7,113.09994 99.7,118.29994 91.3,122.19994 			"/>
			<polyline class="st152" points="103.8,111.19994 108,109.29994 108,114.39994 103.8,116.29994 			"/>
			<polyline class="st168" points="108,109.29994 112.2,107.29994 112.2,112.39994 108,114.39994 			"/>
			<polyline class="st152" points="112.2,107.29994 116.3,105.39994 116.3,115.59994 112.2,117.59994 			"/>
			<polyline class="st168" points="120.5,103.39994 124.7,101.49994 124.7,106.59994 120.5,108.59994 			"/>
			<polyline class="st167" points="124.7,101.49994 133,97.59994 133,107.89994 124.7,111.69994 			"/>
			<polyline class="st167" points="66.3,133.79994 70.5,131.89993 70.5,142.09995 66.3,144.09995 			"/>
			<polyline class="st166" points="70.5,131.89993 74.7,129.89993 74.7,140.19994 70.5,142.09995 			"/>
			<polyline class="st152" points="74.7,129.89993 78.8,127.99994 78.8,133.09995 74.7,135.09995 			"/>
			<polyline class="st168" points="78.8,127.99994 83,125.99994 83,131.19994 78.8,133.09995 			"/>
			<polyline class="st166" points="83,125.99994 87.2,124.09994 87.2,129.19994 83,131.19994 			"/>
			<polyline class="st152" points="87.2,124.09994 91.3,122.19994 91.3,127.29994 87.2,129.19994 			"/>
			<polyline class="st166" points="91.3,122.19994 95.5,120.19994 95.5,125.29994 91.3,127.29994 			"/>
			<polyline class="st152" points="95.5,120.19994 99.7,118.29994 99.7,123.39994 95.5,125.29994 			"/>
			<polyline class="st168" points="74.7,135.09995 78.8,133.09995 78.8,138.19994 74.7,140.19994 			"/>
			<polyline class="st167" points="78.8,133.09995 87.2,129.19994 87.2,134.39993 78.8,138.19994 			"/>
			<polyline class="st166" points="87.2,129.19994 91.3,127.29994 91.3,132.39993 87.2,134.39993 			"/>
			<polyline class="st169" points="91.3,127.29994 95.5,125.29994 95.5,130.49994 91.3,132.39993 			"/>
			<polyline class="st167" points="95.5,125.29994 108,119.49994 108,124.59994 95.5,130.49994 			"/>
			<polyline class="st167" points="116.3,115.59994 124.7,111.69994 124.7,116.89994 116.3,120.79994 			"/>
			<polyline class="st166" points="124.7,111.69994 128.8,109.79994 128.8,114.89994 124.7,116.89994 			"/>
			<polyline class="st152" points="128.8,109.79994 133,107.89994 133,112.99994 128.8,114.89994 			"/>
		</g>
	</g>
</g>
</svg>
