<?xml version="1.0" encoding="UTF-8" standalone="no"?>
<!--
  Created with Inkscape (http://www.inkscape.org/)
  by Damian Wrobel <dwrobel@ertelnet.rybnik.pl>
  based on the FreeRouting logo embedded in the
  https://freerouting.org/ HTML code.
-->

<svg
   xmlns:dc="http://purl.org/dc/elements/1.1/"
   xmlns:cc="http://creativecommons.org/ns#"
   xmlns:rdf="http://www.w3.org/1999/02/22-rdf-syntax-ns#"
   xmlns:svg="http://www.w3.org/2000/svg"
   xmlns="http://www.w3.org/2000/svg"
   xmlns:sodipodi="http://sodipodi.sourceforge.net/DTD/sodipodi-0.dtd"
   xmlns:inkscape="http://www.inkscape.org/namespaces/inkscape"
   width="256"
   height="256"
   viewBox="0 0 67.733331 67.733331"
   version="1.1"
   id="svg4649"
   inkscape:version="0.92.3 (2405546, 2018-03-11)"
   sodipodi:docname="freerouting.svg">
  <title
     id="title828">FreeRouting logo</title>
  <defs
     id="defs4643" />
  <sodipodi:namedview
     id="base"
     pagecolor="#ffffff"
     bordercolor="#666666"
     borderopacity="1.0"
     inkscape:pageopacity="0.0"
     inkscape:pageshadow="2"
     inkscape:zoom="1.979899"
     inkscape:cx="49.878246"
     inkscape:cy="179.19606"
     inkscape:document-units="mm"
     inkscape:current-layer="layer1"
     showgrid="false"
     units="px"
     inkscape:window-width="1920"
     inkscape:window-height="1043"
     inkscape:window-x="0"
     inkscape:window-y="0"
     inkscape:window-maximized="1" />
  <metadata
     id="metadata4646">
    <rdf:RDF>
      <cc:Work
         rdf:about="">
        <dc:format>image/svg+xml</dc:format>
        <dc:type
           rdf:resource="http://purl.org/dc/dcmitype/StillImage" />
        <dc:title>FreeRouting logo</dc:title>
        <dc:description>Created with Inkscape (http://www.inkscape.org/)
by Damian Wrobel &lt;dwrobel@ertelnet.rybnik.pl&gt;
based on the FreeRouting logo embedded in the
https://freerouting.org/ HTML code.
</dc:description>
      </cc:Work>
    </rdf:RDF>
  </metadata>
  <g
     inkscape:label="Layer 1"
     inkscape:groupmode="layer"
     id="layer1"
     transform="translate(0,-229.26668)">
    <rect
       style="fill:#9c3e3e;fill-opacity:1;stroke-width:0.26458332"
       id="rect4651"
       width="68.554626"
       height="68.287354"
       x="-0.4009043"
       y="229.11356" />
    <polygon
       points="92.294006,99.547771 91.138568,100.27544 90.047039,101.10826 89.019419,102.04624 88.055694,103.08939 87.158012,104.23467 86.39055,105.41975 85.753337,106.6446 85.246398,107.90924 84.869681,109.21365 84.623211,110.55787 84.507003,111.94185 84.521043,113.36562 84.661308,114.82676 84.908439,116.35214 85.346838,118.02807 85.939502,119.4984 86.68643,120.76306 87.680016,121.92435 88.679799,122.87047 90.020579,123.9057 91.370187,124.68231 92.728625,125.20032 94.111646,125.54787 95.490428,125.76649 96.916919,125.86641 98.402607,125.74478 99.77067,125.31295 101.17814,124.67694 102.51301,123.86925 103.77527,122.88989 104.85346,121.83196 105.88743,120.53978 106.66441,119.38782 107.44267,118.07913 108.2222,116.6137 108.81078,115.15815 109.19599,113.52675 109.37782,111.71952 109.38074,110.24873 109.26224,108.54871 109.07236,107.12458 108.73138,105.60081 108.24848,104.28191 107.6748,102.94444 106.9025,101.81238 106.05203,100.7387 104.77997,99.417307 103.35967,98.441851 101.79113,97.812319 99.469175,97.528738 99.469175,97.511067 98.224151,97.626615 98.224151,106.21164 101.07489,106.29009 102.50929,106.78006 103.58509,107.5989 104.38972,108.69984 105.03172,109.89845 105.39889,111.21006 105.43914,112.56768 105.20353,114.16949 104.79186,115.69365 104.21528,116.96868 103.24697,117.99221 102.0421,118.66245 100.80481,119.2764 99.498456,119.63904 97.978248,119.53116 96.463683,119.06619 95.153967,118.41399 93.950996,117.58893 92.934473,116.35175 92.369997,115.03705 92.090358,113.67305 92.061954,112.25673 92.369052,110.67539 93.057809,109.32918 94.158653,108.16547 95.460728,107.20771 96.821528,106.5562 98.224151,106.21164 98.224151,97.626615 97.554767,97.68874 96.143706,97.995757 94.796568,98.407926 93.513339,98.925286 "
       id="polygon6"
       transform="matrix(0.26288729,0,0,0.23800491,2.3620194,241.23666)"
       style="fill:#ffffff" />
    <polygon
       points="48.025602,103.36241 47.863575,101.78914 56.43081,101.1417 56.43081,94.085061 56.134013,94.090383 54.342711,94.208926 52.6073,94.412857 51.187424,94.626927 49.806873,94.858263 48.03296,95.200825 46.529897,95.55516 44.947116,96.045925 43.645757,96.688849 43.327103,98.235639 43.297349,99.73102 43.297308,101.7519 43.313792,103.39109 43.343492,105.26383 43.366658,106.93019 43.391781,108.45332 43.418876,109.83321 43.463183,111.63447 43.511904,113.11346 43.583711,114.58413 43.677333,116.21274 43.710233,117.70813 43.735883,119.10444 43.758752,120.81207 43.768715,122.34353 43.774979,124.09139 43.802046,126.07574 43.848891,127.91069 43.915514,129.59622 44.0019,131.13236 44.108064,132.51909 44.304395,134.31907 44.497728,135.67493 45.379764,136.77328 46.826573,136.70613 48.169202,136.48215 49.555301,136.25655 50.956776,136.02389 52.418597,135.75234 53.896536,135.46452 55.194116,135.04189 54.834665,133.72798 53.441397,130.70034 52.913331,129.31769 52.35624,127.79621 51.80787,126.27264 51.311286,124.95711 50.790915,123.68717 52.163244,123.28226 53.802698,123.40446 55.419188,123.68797 57.012687,124.13277 58.362809,124.69789 59.568413,125.48752 60.797466,126.38434 62.015828,127.27408 63.130833,128.05804 64.379313,128.88926 65.542811,129.61363 67.097781,130.54306 68.383332,131.28653 69.771173,132.06983 71.261276,132.89293 72.532287,133.5925 73.967891,134.42804 75.313422,135.26738 76.568922,136.11048 77.92196,135.65455 78.801431,134.57524 79.556931,133.29662 80.093637,132.05283 80.65679,130.4959 81.111875,129.08184 81.540284,127.72654 81.965925,126.38439 80.843954,125.57823 79.652754,126.3689 78.414629,127.16783 77.104805,127.55151 70.335459,124.84251 68.872383,124.2371 67.511097,123.67725 66.251601,123.16297 66.618086,121.85467 67.934997,120.93827 69.044643,119.94499 70.10145,118.78176 71.132067,117.62929 72.434628,116.22994 73.581278,114.83192 74.447316,113.28943 75.03273,111.60251 75.337493,109.77117 75.361644,107.79538 75.209229,106.3907 74.87208,104.9846 74.192004,103.58773 73.397381,102.21125 72.713606,101.03995 71.914014,99.854397 70.997256,98.755821 69.939261,97.845583 68.581728,96.981151 67.270446,96.076233 66.057039,95.33457 64.725939,94.783 63.277173,94.421551 61.843244,94.247226 59.884272,94.109539 57.981204,94.057267 56.43081,94.085061 56.43081,101.1417 57.794499,101.26708 59.250083,101.59861 60.743439,102.16834 62.315204,103.0086 63.673196,104.02568 64.817402,105.21955 65.36048,106.4794 65.923538,107.74489 66.191729,109.08954 66.189798,110.4533 65.925225,111.83623 65.380649,113.2123 64.748241,114.58553 64.045917,115.79049 62.965107,116.76128 61.741494,117.44313 60.405764,117.95649 59.08086,118.23322 57.725096,118.37039 56.185502,118.41034 54.67635,118.55822 53.146301,118.87364 51.826878,119.36693 50.572296,119.90851 50.129456,118.61479 49.847306,116.80018 49.585244,115.02935 49.38651,113.65365 49.16858,112.12181 48.916022,110.31757 48.665745,108.48221 48.445412,106.81243 48.255021,105.30825 "
       id="polygon8"
       transform="matrix(0.26288729,0,0,0.23800491,2.3620194,241.23666)"
       style="fill:#ffffff" />
    <polygon
       points="117.81435,92.292129 116.47175,92.007589 115.19128,92.474149 113.91054,91.979388 113.1039,93.077815 113.41052,94.45009 113.51617,95.8441 113.51603,97.4592 113.55185,98.929404 113.62469,100.32656 113.64202,101.859 113.64812,103.34277 113.66895,104.88442 113.71671,106.27011 113.8143,107.78292 114.93133,115.69684 115.47232,117.01558 116.33067,118.28188 117.36243,119.1617 118.57444,119.96409 119.81818,120.59589 121.08872,121.13848 122.41241,121.41973 123.91958,121.27192 125.33257,121.02892 126.83697,120.66555 128.34885,120.08145 129.69031,119.40877 130.79156,118.40271 131.55618,117.23052 132.28276,116.00011 132.33849,117.40311 132.35681,118.76329 133.77593,119.00642 135.0894,118.30513 137.07445,117.79225 138.42716,118.02587 138.83,116.73347 138.073,115.50817 137.46463,114.25101 137.12424,112.93807 136.81714,111.58222 136.49288,110.11638 136.24551,108.74774 136.02222,107.37531 135.78574,105.76727 135.60059,104.31516 135.43351,102.62163 135.35767,101.20535 135.34368,99.743778 135.35749,98.141868 135.42239,96.741216 135.61965,95.387638 135.97054,93.892243 136.38839,92.557498 135.25931,91.768842 133.909,91.671817 131.73115,91.089414 131.73115,90.746203 131.72921,92.152485 131.87988,93.588547 132.04758,94.958203 132.06733,96.390796 131.98183,97.787128 131.91281,99.196447 131.88412,100.8796 131.87093,102.48235 131.8656,103.86163 131.91161,105.25132 131.99243,106.61549 131.76185,108.05727 131.30559,109.40898 130.44626,110.66973 129.50716,111.7282 128.30612,112.53535 126.99522,113.06385 125.69324,113.46202 124.22558,113.69245 122.75906,113.69928 121.4723,113.14029 120.36146,112.32005 119.4515,111.15708 118.79895,109.81451 118.37355,108.43633 118.06595,107.05573 117.82161,105.713 117.64275,104.23551 117.49921,102.71077 117.31897,101.062 117.15281,99.441729 117.10636,97.776733 117.15536,96.412545 117.22805,94.964967 117.35077,93.588426 "
       id="polygon10"
       transform="matrix(0.26288729,0,0,0.23800491,2.3620194,241.23666)"
       style="fill:#ffffff" />
    <polygon
       points="165.97075,89.858916 161.17147,93.100266 161.98655,94.391379 162.5845,95.711544 162.99306,97.188228 163.34291,98.722138 163.6175,100.12672 163.84396,101.55735 164.13706,105.66572 164.18275,107.19392 164.16308,108.61947 164.00445,110.278 163.78046,111.9099 163.53202,113.45291 164.96835,113.04711 166.24837,112.48574 167.66764,112.3797 168.9904,112.77357 "
       id="polygon12"
       transform="matrix(0.26288729,0,0,0.23800491,2.3620194,241.23666)"
       style="fill:#ffffff" />
    <polygon
       points="182.87856,94.064422 183.9991,93.150688 185.15851,92.415532 186.46143,91.752021 187.81031,91.330456 189.34777,91.300351 190.88059,91.75302 192.10349,92.462769 192.99115,93.58015 193.2738,95.054472 193.33459,96.581146 193.30522,97.933941 193.269,99.347013 193.26215,100.78317 193.39929,102.36649 193.53168,103.73046 193.67467,105.07792 194.10222,106.37283 194.57076,107.80379 195.00639,109.284 195.3877,110.71106 195.7223,112.07225 197.06979,111.73752 198.20516,110.97332 198.90999,109.77395 198.28047,108.43386 197.95811,107.09888 197.60124,105.71541 197.22791,104.02849 197.19586,102.42756 197.1975,100.83158 197.31161,98.85051 197.44291,97.080363 197.54136,95.625616 197.62152,94.176526 197.56567,92.806627 197.29312,91.31238 197.00002,89.663004 196.46103,88.356163 195.78117,87.124558 194.8634,85.952083 193.5733,84.89128 192.24617,84.34507 190.61451,84.112641 189.19089,84.144217 187.59599,84.352293 186.18196,84.668166 184.75549,85.119282 183.52699,85.738095 182.42704,86.754618 181.56872,87.902739 180.7598,89.139582 179.94413,85.822497 179.44709,84.498498 179.44709,84.00163 178.86515,85.366143 178.10898,86.644296 177.12382,87.632725 175.85791,88.24464 174.59585,88.762027 173.18,89.028963 171.86549,89.397877 172.53194,90.71001 173.83113,91.975702 174.41595,93.282475 175.05881,94.818775 175.54522,96.119568 175.94369,97.504195 176.15381,98.8416 176.39868,100.84347 176.56383,102.35893 176.70045,103.74256 176.85188,105.57088 176.9391,107.10263 176.95552,108.68361 176.72388,110.07595 176.40044,111.41445 177.68403,110.96102 178.95003,110.40386 180.32991,110.44335 181.06447,109.19453 180.80414,107.69398 180.61686,106.04984 180.52755,104.138 180.4872,102.48459 180.49581,101.08962 180.58348,99.631647 180.86267,98.095698 181.26123,96.768904 181.96908,95.265099 "
       id="polygon14"
       transform="matrix(0.26288729,0,0,0.23800491,2.3620194,241.23666)"
       style="fill:#ffffff" />
    <polygon
       points="148.83998,107.78123 148.52487,106.41055 148.30251,105.04658 148.02184,103.70573 147.84286,102.33958 147.71377,100.74727 147.63696,99.164655 147.61229,97.78999 148.69904,96.848581 150.14962,96.658015 151.54398,96.50344 153.02261,96.288088 154.50469,96.128815 155.86152,95.922171 155.58672,94.545657 155.03108,93.263643 155.84165,90.314338 154.42421,90.473544 152.94446,90.706122 151.47644,90.975177 149.87601,91.282315 148.44016,91.540786 147.16627,90.953442 146.98322,89.52309 147.01663,88.100392 147.42078,83.718724 146.29922,84.526173 144.95979,84.854263 143.56386,84.49029 142.65431,85.506192 143.08939,86.944576 143.58528,88.64212 143.97564,90.076077 144.31804,91.580679 143.22172,92.3724 141.81205,92.771311 141.69007,95.398276 141.47824,96.838065 141.08438,98.250516 142.4866,98.421817 143.80051,98.071438 144.93554,110.23692 145.04931,111.63668 145.38975,113.16006 145.95044,114.43198 146.83086,115.52162 147.92814,116.38508 149.26811,116.61346 150.71945,116.44865 152.09768,116.21754 153.53596,115.92991 155.23728,115.58032 154.80458,114.20627 154.15566,112.98876 154.21562,111.55213 154.72885,110.11355 155.2849,108.79073 153.86531,108.67843 152.48251,108.98273 151.10338,109.18622 149.70497,108.97185 "
       id="polygon16"
       transform="matrix(0.26288729,0,0,0.23800491,2.3620194,241.23666)"
       style="fill:#ffffff" />
    <polygon
       points="162.05906,82.08112 161.09886,89.121235 165.97075,86.270724 166.37735,83.932524 "
       id="polygon18"
       transform="matrix(0.26288729,0,0,0.23800491,2.3620194,241.23666)"
       style="fill:#ffffff" />
    <polygon
       points="214.09422,107.43377 212.73764,107.74053 211.3638,107.9118 209.68466,107.89035 207.93862,107.62667 206.58517,107.26995 205.20828,106.79299 204.57642,112.32513 204.48769,113.76211 205.92826,114.5208 207.44046,114.17856 208.91627,113.76713 210.35566,113.28651 211.68146,112.77093 213.01194,112.21276 214.23597,111.60775 215.42026,110.91508 216.55501,110.16459 217.76346,109.32702 218.92995,108.52376 220.04548,107.74997 220.94872,106.68106 221.82861,105.55701 222.69056,104.30756 223.31299,102.91531 223.84966,101.63324 224.27484,97.674646 224.54235,96.207655 224.97974,94.319086 225.35168,92.707807 225.70892,91.123677 225.96558,89.756869 226.22173,88.426849 226.50342,87.093805 225.19407,87.634561 224.24841,88.623585 223.34983,89.709309 222.41533,90.696267 221.21444,91.449607 220.70005,92.862328 220.33716,94.38016 219.85752,95.935293 219.33496,97.342465 218.66235,98.611452 217.57233,99.44806 216.28268,99.920425 214.91075,100.24115 213.52546,100.6385 212.19659,100.93963 210.71893,100.98472 209.35259,100.58746 208.09413,100.00192 206.96966,99.161131 206.25778,97.978356 205.74756,96.594052 205.47663,95.18827 205.60285,93.584025 206.04274,92.21175 206.81498,90.875385 207.67208,89.832145 208.68891,88.869973 209.81707,87.989679 211.03054,87.152274 212.22809,86.399325 214.10879,85.846581 215.56086,85.621144 217.06161,85.536094 218.51755,85.98096 219.66044,86.837872 220.64135,87.821644 221.04103,89.168067 222.19079,88.440444 222.95459,87.297318 223.86033,85.959724 224.63737,84.83535 225.45155,83.681734 226.12651,82.43887 225.26567,81.169708 224.06296,80.220132 222.74762,79.681293 221.27837,79.368808 218.47046,79.203055 218.47046,79.147948 217.07336,79.206052 215.60045,79.461891 213.69055,79.967344 211.93958,80.592772 210.34755,81.338161 208.91446,82.203525 207.64031,83.188849 206.53595,84.206709 205.48145,85.319716 204.47681,86.527899 203.57155,87.788488 202.70123,89.353273 202.06506,90.982237 201.66307,92.675367 201.49521,94.432675 201.52786,95.788426 201.68829,97.178454 202.05115,98.703076 202.56209,99.99454 203.49972,101.50456 204.7303,102.77242 205.9192,103.61736 207.34622,104.36567 208.82695,104.87829 210.36137,105.15517 211.9495,105.19637 213.5913,105.00185 214.99661,104.64291 216.33831,104.05677 217.58598,103.42455 218.88259,102.67426 218.5889,104.15041 217.68538,105.15505 216.5768,106.09483 215.33145,106.89192 "
       id="polygon20"
       transform="matrix(0.26288729,0,0,0.23800491,2.3620194,241.23666)"
       style="fill:#ffffff" />
    <polygon
       points="62.629997,81.678901 62.08295,80.21218 61.740644,78.836841 61.504515,77.364247 61.329137,75.970818 61.195622,74.504596 61.142391,72.770575 61.292673,71.384746 61.899701,69.958809 63.096017,69.079257 64.347048,68.559277 65.679647,68.24763 67.146692,68.091003 68.654102,68.008923 70.024689,67.949685 71.373029,67.849731 70.851011,66.560305 69.766677,65.590249 69.252557,64.290469 69.021072,62.88813 69.247184,61.53948 69.888866,60.303622 70.713324,59.215576 71.793513,58.042804 71.793513,57.636279 70.435238,58.03681 69.034599,58.503613 67.740341,58.955742 66.126321,59.739363 64.723685,60.664855 63.369432,61.758706 62.063591,63.020943 60.80616,64.451551 59.223515,63.457465 59.148981,62.042935 57.959388,62.736835 56.992775,63.708916 55.643369,64.111419 55.289763,65.433325 56.036867,66.821206 56.64195,68.08482 57.231104,69.445728 57.553511,70.805218 57.857288,72.3136 58.119404,74.000101 58.272723,75.477379 58.350348,76.930573 58.352292,78.35971 58.278528,79.764736 58.044101,81.40338 57.770199,83.022327 57.515063,84.467866 57.204023,86.125491 57.981204,87.474816 57.981204,87.909867 59.382261,87.322347 60.81804,86.804109 62.18906,86.450085 63.555435,86.378508 63.59337,85.009918 "
       id="polygon22"
       transform="matrix(0.26288729,0,0,0.23800491,2.3620194,241.23666)"
       style="fill:#ffffff" />
    <polygon
       points="82.911938,80.791087 84.456405,81.448105 86.040779,81.897358 87.665072,82.13886 89.329271,82.172583 90.73373,81.919836 92.267438,81.626724 93.639902,81.330858 95.272268,80.916016 96.719684,80.563356 98.134416,80.140009 98.36127,78.790482 97.612776,77.60016 97.333529,76.149436 97.273818,74.75602 97.553633,73.228455 98.056602,71.651344 98.550891,70.164778 97.294433,70.679668 96.090489,71.460198 94.67681,72.101745 93.337272,72.553792 91.853784,73.03311 90.40541,73.479015 89.041626,73.790095 87.659699,74.138179 86.220828,74.467498 84.771023,74.451811 83.455232,73.824696 82.500458,72.840667 98.320716,64.837543 98.161956,63.396958 97.772832,61.644591 97.290477,60.298195 96.451196,58.831299 95.387747,57.739608 93.981371,56.936331 92.634557,56.429122 91.251333,56.11734 89.807333,56.005951 88.394625,56.08494 87.827801,56.159072 87.827801,61.171753 90.00666,61.223026 91.606289,61.642566 92.791346,62.684833 80.863812,68.738233 80.731337,67.32666 81.0513,65.837083 81.651618,64.523007 82.485297,63.411309 83.583009,62.58037 85.018343,61.965148 86.469539,61.465122 87.827801,61.171753 87.827801,56.159072 86.993798,56.268148 85.300722,56.763625 83.779056,57.528657 82.367888,58.50553 81.067244,59.694286 79.877084,61.094884 78.810017,62.683861 77.948919,64.31535 77.3037,65.975094 76.874427,67.663107 76.661073,69.379402 76.663625,71.123953 76.788689,72.476383 77.089253,73.9687 77.585337,75.442806 78.257975,76.770099 79.107138,77.950606 80.132855,78.984301 81.40739,79.926318 "
       id="polygon24"
       transform="matrix(0.26288729,0,0,0.23800491,2.3620194,241.23666)"
       style="fill:#ffffff" />
    <polygon
       points="109.05019,76.182214 110.59465,76.839232 112.17903,77.288485 113.80331,77.529987 115.46752,77.563696 116.87197,77.310963 118.40569,77.017851 119.77816,76.721971 121.41052,76.307143 122.85792,75.954483 124.27267,75.531136 124.49951,74.181595 123.75102,72.991287 123.47178,71.540563 123.41206,70.147147 123.69187,68.619582 124.19486,67.042458 124.68915,65.555892 123.43269,66.070782 122.22874,66.851325 120.81506,67.492872 119.47551,67.944919 117.99202,68.424237 116.54366,68.870142 115.17987,69.181209 113.79795,69.529293 112.35907,69.858625 110.90926,69.842938 109.59349,69.215823 108.63871,68.231794 124.45897,60.22867 124.30021,58.788085 123.91107,57.035704 123.42872,55.689322 122.58944,54.222412 121.52599,53.130735 120.11961,52.327458 118.7728,51.820249 117.38959,51.508467 115.94559,51.397078 114.53288,51.476067 113.96605,51.550198 113.96605,56.562867 116.1449,56.614153 117.74454,57.033693 118.92959,58.07596 107.00205,64.12936 106.86958,62.717773 107.18954,61.228197 107.78986,59.914134 108.62355,58.802422 109.72126,57.971484 111.1566,57.356275 112.60779,56.856235 113.96605,56.562867 113.96605,51.550198 113.13204,51.659275 111.43896,52.154752 109.9173,52.919784 108.50613,53.896657 107.20548,55.085413 106.01534,56.485998 104.94827,58.074975 104.08716,59.706463 103.44195,61.366207 103.01268,63.054234 102.79933,64.770516 102.80188,66.51508 102.92693,67.867497 103.22749,69.359827 103.72358,70.833919 104.39622,72.161226 105.24539,73.341733 106.27111,74.375415 107.54563,75.317431 "
       id="polygon26"
       transform="matrix(0.26288729,0,0,0.23800491,2.3620194,241.23666)"
       style="fill:#ffffff" />
    <polygon
       points="33.528141,86.913931 33.333215,85.565619 32.733369,84.151102 32.006516,82.768716 31.277624,81.572494 30.78698,80.226328 30.885921,78.799648 32.014049,77.705865 33.26103,77.057433 34.740306,76.500598 44.702429,75.912835 45.883908,75.238605 46.828962,74.1496 46.602257,72.803299 46.824332,71.371732 47.585745,70.239231 30.275721,74.634169 29.708532,73.303569 29.401056,71.980501 29.228337,70.100572 29.052878,68.282257 28.919687,66.802279 28.822757,65.395012 28.774562,64.001556 32.721705,62.299948 34.205639,62.035929 35.812503,61.745503 37.186493,61.49416 38.620827,61.229722 40.023153,60.971872 41.381024,60.723364 43.334433,60.368152 45.187781,60.033987 46.941093,59.720868 48.356784,59.504503 49.757963,59.30658 50.352057,57.900987 50.305064,56.506842 50.331213,54.932053 50.451687,53.543808 50.71622,52.216825 51.423323,50.925294 51.423323,49.954198 50.01345,50.139283 48.389657,50.380231 47.031408,50.597622 45.552821,50.846427 44.098547,51.100686 42.611211,51.365205 41.020844,51.652714 39.50667,51.934459 34.807077,52.859884 33.481998,53.124916 31.587206,53.510328 29.803829,53.881213 28.131854,54.237546 26.571294,54.579339 25.261997,54.966613 24.944207,64.155186 25.160801,68.848515 25.334816,72.615447 25.466279,75.456022 25.530255,76.835074 25.601481,78.358023 26.226896,90.226737 26.328821,92.389153 26.419284,94.29349 26.498273,95.939815 26.565786,97.328074 26.645504,98.926636 26.720982,100.30064 26.918217,101.64967 33.586515,96.017548 33.632172,94.50783 33.652841,92.927115 33.667799,91.402465 33.663317,89.944438 33.618146,88.273273 "
       id="polygon28"
       style="fill:#ffffff;image-rendering:auto"
       transform="matrix(0.26288729,0,0,0.23800491,2.3620194,241.23666)" />
  </g>
</svg>
