<?xml version="1.0" encoding="UTF-8"?>
<svg xmlns="http://www.w3.org/2000/svg" xmlns:xlink="http://www.w3.org/1999/xlink" width="210.46875" height="210.46875" viewBox="0 0 210.46875 210.46875" version="1.1">
<g id="surface2">
<path style=" stroke:none;fill-rule:nonzero;fill:rgb(67.058825%,76.078433%,67.058825%);fill-opacity:1;" d="M 105.234375 0 C 83.203125 0.046875 61.742188 7.007812 43.875 19.898438 L 67.777344 43.804688 C 79.054688 36.902344 92.015625 33.242188 105.234375 33.21875 C 145.007812 33.21875 177.25 65.460938 177.25 105.234375 C 177.21875 118.449219 173.550781 131.402344 166.648438 142.671875 L 190.597656 166.621094 C 203.484375 148.742188 210.4375 127.273438 210.46875 105.234375 C 210.46875 47.117188 163.355469 0 105.234375 0 Z M 105.234375 0 "/>
<path style=" stroke:none;fill-rule:nonzero;fill:rgb(27.843139%,50.196081%,38.039216%);fill-opacity:1;" d="M 166.59375 190.570312 L 142.691406 166.667969 C 131.414062 173.566406 118.457031 177.226562 105.234375 177.25 C 65.464844 177.25 33.222656 145.007812 33.222656 105.234375 C 33.253906 92.019531 36.921875 79.066406 43.824219 67.796875 L 19.875 43.851562 C 6.984375 61.726562 0.0351562 83.195312 0 105.234375 C 0 163.355469 47.117188 210.46875 105.234375 210.46875 C 127.265625 210.421875 148.730469 203.460938 166.59375 190.570312 Z M 166.59375 190.570312 "/>
<path style=" stroke:none;fill-rule:nonzero;fill:rgb(67.058825%,76.078433%,67.058825%);fill-opacity:1;" d="M 138.722656 105.234375 C 138.722656 123.738281 123.722656 138.738281 105.21875 138.738281 C 86.714844 138.738281 71.714844 123.738281 71.714844 105.234375 C 71.714844 86.730469 86.714844 71.730469 105.21875 71.730469 C 123.722656 71.730469 138.722656 86.730469 138.722656 105.234375 Z M 138.722656 105.234375 "/>
</g>
</svg>
